<?xml version="1.0" encoding="utf-8"?>
<!-- Generator: Adobe Illustrator 22.0.1, SVG Export Plug-In . SVG Version: 6.00 Build 0)  -->
<svg version="1.1" id="Layer_1" xmlns="http://www.w3.org/2000/svg" xmlns:xlink="http://www.w3.org/1999/xlink" x="0px" y="0px"
	 viewBox="0 0 480 480" style="enable-background:new 0 0 480 480;" xml:space="preserve">
<style type="text/css">
	.st0{clip-path:url(#SVGID_2_);fill:#4FB648;}
	.st1{clip-path:url(#SVGID_2_);fill:#FFFFFF;}
	.st2{clip-path:url(#SVGID_2_);fill:#FDFEFF;}
	.st3{clip-path:url(#SVGID_2_);fill:#222426;}
</style>
<g>
	<defs>
		<rect id="SVGID_1_" width="480" height="480"/>
	</defs>
	<clipPath id="SVGID_2_">
		<use xlink:href="#SVGID_1_"  style="overflow:visible;"/>
	</clipPath>
	<path class="st0" d="M471.2,192C463.2,88.8,376.8,8,272,8h-56h-8C97.6,8,8,97.6,8,208c0,17.6,14.4,32,32,32h8h48
		c0,26.4,21.6,48,48,48h13.6h2.4c32,0,64-8,92.8-22.4c23.2-12,48.8-19.2,74.4-21.6c5.6-0.8,10.4-0.8,16-0.8h16h4c4,0,8,0.8,12.8,0.8
		c5.6,0.8,11.2,1.6,16.8,2.4l40.8,8.8c2.4,0.8,4,0.8,6.4,0.8h1.6c1.6,0,3.2,0,4.8-0.8c0.8,0,1.6,0,2.4-0.8c1.6,0,2.4-0.8,4-1.6
		c0.8-0.8,1.6-0.8,3.2-1.6c0.8,0,0.8-0.8,1.6-0.8c3.2-2.4,6.4-5.6,8.8-8.8c3.2-4.8,5.6-11.2,5.6-17.6v-16
		C472,202.4,472,197.6,471.2,192"/>
	<path class="st1" d="M466.4,242.4L466.4,242.4c-2.4,3.2-5.6,6.4-8.8,8.8c-0.8,0-0.8,0.8-1.6,0.8c-0.8,0.8-1.6,0.8-3.2,1.6
		c-1.6,0.8-2.4,0.8-4,1.6c-0.8,0-1.6,0.8-2.4,0.8c-1.6,0-3.2,0.8-4.8,0.8H440c-2.4,0-4,0-6.4-0.8l-40.8-8.8
		c-5.6-0.8-11.2-2.4-16.8-2.4c-4-0.8-8-0.8-12.8-0.8h-4h-16c-5.6,0-10.4,0.8-16,0.8V264v19.2c0,1.6,0,3.2,0.8,4.8
		c0.8,4,3.2,7.2,7.2,8.8l41.6,28.8c9.6,6.4,20.8,10.4,32,9.6c27.2,0,50.4-19.2,55.2-45.6l4-18.4C470.4,262.4,469.6,252,466.4,242.4"
		/>
	<path class="st2" d="M344,304v168h-40v-47.2c0-32.8-24-60-56-64.8s-56-32-56-64.8V288l72-24l64-24l0.8,48L344,304z"/>
	<path class="st3" d="M272,0h-64C93.6,0,0,93.6,0,208c0,22.4,17.6,40,40,40h48.8c4,27.2,27.2,48,55.2,48h13.6
		c8.8,0,17.6-0.8,26.4-1.6v0.8c0,36,27.2,67.2,63.2,72.8c28,4,48.8,28,48.8,56.8V472c0,4.8,3.2,8,8,8h40c4.8,0,8-3.2,8-8V318.4
		l20.8,14.4C384,340,396,344,409.6,344c30.4,0,57.6-21.6,63.2-52l4-18.4c2.4-9.6,1.6-20-1.6-30.4c3.2-5.6,4.8-12,4.8-19.2v-16
		C480,93.6,386.4,0,272,0 M104,240c0-22.4,17.6-40,40-40h24v-16h-24c-28,0-51.2,20.8-55.2,48H56v-32c0-17.6,14.4-32,32-32
		c26.4,0,48-21.6,48-48V88h-16v32c0,17.6-14.4,32-32,32c-26.4,0-48,21.6-48,48v32c-13.6,0-24-10.4-24-24c0-105.6,86.4-192,192-192v8
		c0,17.6,14.4,32,32,32h8c8.8,0,16,7.2,16,16v8c0,8.8-7.2,16-16,16c-17.6,0-32,14.4-32,32v8c0,17.6,14.4,32,32,32h40v-16h-40
		c-8.8,0-16-7.2-16-16v-8c0-8.8,7.2-16,16-16c17.6,0,32-14.4,32-32v-8c0-17.6-14.4-32-32-32h-8c-8.8,0-16-7.2-16-16v-8h48
		c30.4,0,59.2,7.2,84.8,20c-4,7.2-12,12-20.8,12h-24v16h24c14.4,0,28-8,35.2-20.8c49.6,29.6,84,80.8,92,140
		c-16.8-0.8-30.4-14.4-30.4-32h-16c0,26.4,21.6,48,48,48v8V224c0,4.8-1.6,9.6-4,12.8c-1.6,3.2-4.8,5.6-7.2,7.2c0,0-0.8,0-0.8,0.8
		c-0.8,0.8-1.6,0.8-2.4,1.6c-0.8,0-1.6,0.8-2.4,0.8c-0.8,0-1.6,0.8-2.4,0.8c-0.8,0-2.4,0-3.2,0.8h-1.6c-1.6,0-3.2,0-4.8-0.8l-28-5.6
		V232c0-17.6-14.4-32-32-32h-8c-8.8,0-16-7.2-16-16v-8c0-8.8,7.2-16,16-16c17.6,0,32-14.4,32-32v-8c0-17.6-14.4-32-32-32h-40v16h40
		c8.8,0,16,7.2,16,16v8c0,8.8-7.2,16-16,16c-17.6,0-32,14.4-32,32v8c0,17.6,14.4,32,32,32h8c8.8,0,16,7.2,16,16v7.2
		c-4.8-0.8-9.6-1.6-14.4-2.4c-3.2,0-5.6-0.8-8.8-0.8c-3.2,0-5.6-0.8-8.8-0.8h-12h-4.8c-4.8,0-8.8,0.8-13.6,0.8h-2.4
		c-21.6,2.4-42.4,7.2-63.2,16v-12c0-17.6,14.4-32,32-32h8v-16h-8c-26.4,0-48,21.6-48,48v19.2c-24.8,12-52,19.2-80,20.8v-24
		c0-4.8,3.2-8,8-8h24c13.6,0,24-10.4,24-24v-32h-16v32c0,4.8-3.2,8-8,8h-24c-13.6,0-24,10.4-24,24v24h-8
		C121.6,280,104,262.4,104,240 M336,464h-24v-39.2c0-36-27.2-67.2-63.2-72.8c-28-4-48.8-28-48.8-56.8v-4c20-4,39.2-10.4,56.8-19.2
		c20-9.6,41.6-16.8,63.2-19.2v30.4c0,8,4,16,11.2,20l4.8,3.2V464z M409.6,328L409.6,328c-9.6,0-19.2-3.2-27.2-8.8L348,296h36v-16
		h-48v-8h32v-16h-32v-4.8h11.2h4.8h8.8c2.4,0,5.6,0,8,0.8c2.4,0,4.8,0,6.4,0.8c4.8,0.8,10.4,1.6,15.2,2.4L432,264
		c2.4,0.8,4.8,0.8,7.2,0.8h0.8c2.4,0,4.8,0,7.2-0.8h0.8c4.8-0.8,9.6-2.4,13.6-5.6c0,4,0,8.8-0.8,12.8l-1.6,8.8H400v16h55.2
		C448,315.2,430.4,328,409.6,328"/>
	<rect x="392" y="304" class="st3" width="24" height="16"/>
	<path class="st3" d="M176,120h16v-16c0-31.2-24.8-56-56-56s-56,24.8-56,56h16c0-22.4,17.6-40,40-40s40,17.6,40,40V120z"/>
	<rect x="136" y="328" class="st3" width="16" height="16"/>
	<rect x="120" y="312" class="st3" width="16" height="16"/>
	<rect x="104" y="328" class="st3" width="16" height="16"/>
	<rect x="120" y="344" class="st3" width="16" height="16"/>
	<rect x="72" y="328" class="st3" width="16" height="16"/>
	<rect x="120" y="328" class="st0" width="16" height="16"/>
	<rect y="408" class="st3" width="16" height="16"/>
	<rect x="16" y="392" class="st3" width="16" height="16"/>
	<rect x="32" y="408" class="st3" width="16" height="16"/>
	<rect x="16" y="408" class="st0" width="16" height="16"/>
	<rect x="16" y="424" class="st3" width="16" height="16"/>
	<rect x="64" y="408" class="st3" width="16" height="16"/>
	<rect x="112" y="456" class="st3" width="16" height="16"/>
	<rect x="200" y="384" class="st3" width="16" height="16"/>
	<rect x="16" y="264" class="st3" width="16" height="16"/>
	<rect x="240" y="440" class="st3" width="16" height="16"/>
	<rect x="400" y="448" class="st3" width="16" height="16"/>
	<rect x="416" y="432" class="st3" width="16" height="16"/>
	<rect x="432" y="448" class="st3" width="16" height="16"/>
	<rect x="416" y="464" class="st3" width="16" height="16"/>
	<rect x="464" y="448" class="st3" width="16" height="16"/>
	<rect x="368" y="360" class="st3" width="16" height="16"/>
	<rect x="416" y="448" class="st0" width="16" height="16"/>
</g>
</svg>
