<?xml version="1.0" encoding="utf-8"?>
<!-- Generator: Adobe Illustrator 22.0.1, SVG Export Plug-In . SVG Version: 6.00 Build 0)  -->
<svg version="1.1" id="Layer_1" xmlns="http://www.w3.org/2000/svg" xmlns:xlink="http://www.w3.org/1999/xlink" x="0px" y="0px"
	 viewBox="0 0 211.4 192.3" style="enable-background:new 0 0 211.4 192.3;" xml:space="preserve">
<style type="text/css">
	.st0{clip-path:url(#SVGID_2_);fill:#221F1F;}
	.st1{clip-path:url(#SVGID_2_);fill:#4FB648;}
	.st2{clip-path:url(#SVGID_2_);fill:#FFFFFF;}
</style>
<g>
	<defs>
		<rect id="SVGID_1_" x="-14.5" y="-20.8" width="240" height="240"/>
	</defs>
	<clipPath id="SVGID_2_">
		<use xlink:href="#SVGID_1_"  style="overflow:visible;"/>
	</clipPath>
	<path class="st0" d="M15.4,149.6c-0.8,0-1.6-0.3-2.3-0.9c-1.4-1.2-1.5-3.4-0.2-4.7l29.1-32.1l17.4,16.4L180.3,13.7
		c1.3-1.3,3.5-1.2,4.7,0.1c1.3,1.3,1.2,3.5-0.1,4.7L59.5,137.5l-17-16l-24.5,27C17.3,149.2,16.3,149.6,15.4,149.6"/>
	<path class="st1" d="M5.5,141.7c-2.5,5.5,0,12,5.5,14.4c5.5,2.5,12,0,14.4-5.5c2.5-5.5,0-12-5.5-14.4C14.4,133.8,8,136.3,5.5,141.7
		"/>
	<path class="st0" d="M15.4,160.5c-2,0-4-0.4-5.9-1.3c-7.2-3.2-10.4-11.7-7.1-18.9c1.6-3.5,4.4-6.1,8-7.5c3.6-1.3,7.4-1.2,10.9,0.3
		c3.5,1.6,6.1,4.4,7.5,8c1.3,3.6,1.2,7.4-0.3,10.9c-1.6,3.5-4.4,6.1-8,7.5C18.8,160.2,17.1,160.5,15.4,160.5 M8.5,143.1
		c-1.7,3.8,0,8.3,3.8,10c3.8,1.7,8.3,0,10-3.8c1.7-3.8,0-8.3-3.8-10C14.7,137.6,10.3,139.3,8.5,143.1"/>
	<rect x="46.2" y="157.1" class="st2" width="22.6" height="30.1"/>
	<rect x="86.9" y="132.9" class="st1" width="22.6" height="54.3"/>
	<rect x="127.5" y="99.3" class="st2" width="22.6" height="87.8"/>
	<rect x="168.1" y="66.4" class="st1" width="22.6" height="120.8"/>
	<path class="st0" d="M72.3,190.6H42.9v-36.8h29.4V190.6z M49.6,183.8h15.9v-23.3H49.6V183.8z"/>
	<path class="st0" d="M112.9,190.6H83.5v-61.1h29.4V190.6z M90.2,183.8h15.9v-47.6H90.2V183.8z"/>
	<path class="st0" d="M153.5,190.6h-29.4V96h29.4V190.6z M130.8,183.8h15.9v-81.1h-15.9V183.8z"/>
	<path class="st0" d="M194.1,190.6h-29.4V63.1h29.4V190.6z M171.5,183.8h15.9V69.8h-15.9V183.8z"/>
	<path class="st0" d="M206.6,190.6H5.7c-1.9,0-3.4-1.5-3.4-3.4c0-1.9,1.5-3.4,3.4-3.4h200.8c1.9,0,3.4,1.5,3.4,3.4
		C209.9,189,208.4,190.6,206.6,190.6"/>
	<path class="st0" d="M181.3,36.2c-0.2,0-0.3,0-0.5,0c-1.4-0.3-2.2-1.6-1.9-3l3.2-15.8l-16.6,1c-1.4,0.1-2.6-1-2.7-2.3
		c-0.1-1.4,1-2.6,2.3-2.6l23.1-1.4l-4.5,22.2C183.5,35.4,182.5,36.2,181.3,36.2"/>
	<path class="st1" d="M127.6,46.3c9-10.8,7.5-26.8-3.3-35.8c-10.8-9-26.8-7.5-35.8,3.3c-9,10.8-7.5,26.8,3.3,35.8
		S118.6,57.1,127.6,46.3"/>
	<path class="st0" d="M44.3,72.3c-0.8,0-1.7-0.3-2.3-1c-1.3-1.3-1.3-3.3,0-4.6l3.5-3.5c1.3-1.3,3.3-1.3,4.6,0c1.3,1.3,1.3,3.3,0,4.6
		l-3.5,3.5C45.9,71.9,45.1,72.3,44.3,72.3 M56.7,59.9c-0.8,0-1.7-0.3-2.3-1c-1.3-1.3-1.3-3.3,0-4.6l13-13c1.3-1.3,3.3-1.3,4.6,0
		c1.3,1.3,1.3,3.3,0,4.6l-13,13C58.3,59.6,57.5,59.9,56.7,59.9"/>
	<path class="st0" d="M65.1,93.1c-0.8,0-1.7-0.3-2.3-1c-1.3-1.3-1.3-3.3,0-4.6l3.5-3.5c1.3-1.3,3.3-1.3,4.6,0c1.3,1.3,1.3,3.3,0,4.6
		l-3.5,3.5C66.8,92.8,65.9,93.1,65.1,93.1 M77.5,80.7c-0.8,0-1.7-0.3-2.3-1c-1.3-1.3-1.3-3.3,0-4.6l13-13c1.3-1.3,3.3-1.3,4.6,0
		c1.3,1.3,1.3,3.3,0,4.6l-13,13C79.1,80.4,78.3,80.7,77.5,80.7"/>
	<path class="st0" d="M45.7,91.9c-0.8,0-1.7-0.3-2.3-1c-1.3-1.3-1.3-3.3,0-4.6l3.5-3.5c1.3-1.3,3.3-1.3,4.6,0c1.3,1.3,1.3,3.3,0,4.6
		L48,91C47.4,91.6,46.5,91.9,45.7,91.9 M58.1,79.6c-0.8,0-1.7-0.3-2.3-1c-1.3-1.3-1.3-3.3,0-4.6l18.9-19c1.3-1.3,3.3-1.3,4.6,0
		c1.3,1.3,1.3,3.3,0,4.6l-19,19C59.8,79.2,58.9,79.6,58.1,79.6"/>
	<path class="st0" d="M118.6,35.8c-0.1,4-3,6.5-7.1,7.3l-0.1,5.1c-1.2,0.2-2.5,0.3-3.7,0.3c-0.9,0-1.8-0.1-2.6-0.2l0.1-5.3
		c-3-0.6-5.9-2-8-3.9l2.4-4.7c2.6,2.4,6.3,4,9,4c2.4,0,3.8-0.8,3.9-2.4c0.1-4.8-13.6-2.3-13.5-11.4c0.1-3.7,2.7-6.2,6.7-7l0.1-5.7
		c0.8-0.1,1.7-0.1,2.6-0.1c1.3,0,2.6,0.2,3.8,0.5l-0.1,5.4c2.5,0.5,4.9,1.4,6.7,2.7l-2.3,4.7c-2.7-1.7-5.9-2.7-7.9-2.8
		c-1.9,0-3.3,0.6-3.3,2C105.1,28.9,118.8,26.6,118.6,35.8"/>
	<path class="st0" d="M108,58.9c-6.7,0-13.1-2.3-18.3-6.6c-12.2-10.1-13.9-28.3-3.8-40.5C96-0.5,114.2-2.2,126.4,7.9
		c12.2,10.1,13.9,28.3,3.8,40.5c-4.9,5.9-11.8,9.6-19.5,10.3C109.8,58.8,108.9,58.9,108,58.9 M108.1,8c-0.7,0-1.4,0-2.1,0.1
		c-5.9,0.5-11.2,3.3-14.9,7.9c-3.8,4.5-5.5,10.3-5,16.1c0.5,5.9,3.3,11.2,7.9,14.9c4.5,3.8,10.3,5.5,16.1,5
		c5.9-0.5,11.2-3.3,14.9-7.9c7.8-9.4,6.5-23.3-2.9-31.1C118.1,9.8,113.2,8,108.1,8"/>
</g>
</svg>
