<?xml version="1.0" encoding="utf-8"?>
<!-- Generator: Adobe Illustrator 22.0.1, SVG Export Plug-In . SVG Version: 6.00 Build 0)  -->
<svg version="1.1" id="Layer_1" xmlns="http://www.w3.org/2000/svg" xmlns:xlink="http://www.w3.org/1999/xlink" x="0px" y="0px"
	 viewBox="0 0 227.6 192.2" style="enable-background:new 0 0 227.6 192.2;" xml:space="preserve">
<style type="text/css">
	.st0{clip-path:url(#SVGID_2_);fill:#FFFFFF;}
	.st1{clip-path:url(#SVGID_2_);fill:#4FB648;}
	.st2{clip-path:url(#SVGID_2_);fill:#221F1F;}
</style>
<g>
	<defs>
		<rect id="SVGID_1_" x="-12.3" y="-25" width="240" height="240"/>
	</defs>
	<clipPath id="SVGID_2_">
		<use xlink:href="#SVGID_1_"  style="overflow:visible;"/>
	</clipPath>
	<path class="st0" d="M148,142c0,36.6-29.7,45.1-66.3,45.1c-36.6,0-66.3-8.5-66.3-45.1c0-17.6,6.9-38.6,18.2-55.6l32.3-57.9h31.6
		l31.7,56.7c0.3,0.5,0.6,1.1,1,1.6C141.3,103.7,148,124.5,148,142"/>
	<path class="st1" d="M136.9,142c0,17.7-6.7,34-55.2,34c-48.6,0-55.2-16.3-55.2-34c0-15.3,6.3-34.3,16.3-49.5l0.3-0.4l29.3-52.5
		L78,28.5l7.1-0.4l5.3,9.9c1.4,3,0.8,2.1,1.4,3l27.7,49.6c0.5,0.8,1,1.6,1.4,2.4C130.8,108.1,136.9,126.8,136.9,142"/>
	<path class="st2" d="M101.1,134.2c0,4.4-1.6,8-4.9,10.7c-2.7,2.2-6,3.5-10,3.9v6.6h-9v-7c-5.4-1.1-10.3-3.8-14.9-8l6.5-8
		c5.3,4.6,10.2,6.9,14.6,6.9c2,0,3.6-0.4,4.7-1.3c1.2-0.9,1.7-2,1.7-3.5c0-1.5-0.6-2.7-1.8-3.5c-1.2-0.9-3.6-1.7-7.2-2.6
		c-5.7-1.3-9.9-3.1-12.5-5.3c-2.6-2.2-4-5.6-4-10.2s1.7-8.2,5-10.8c2.2-1.7,4.8-2.8,7.8-3.4v-6.5h9v6.5c1.8,0.3,3.7,0.7,5.5,1.3
		c3.2,1.1,6.1,2.7,8.6,4.7l-5.5,8c-4.3-3.2-8.7-4.8-13.2-4.8c-1.8,0-3.2,0.4-4.3,1.3c-1,0.9-1.6,2-1.6,3.4c0,1.4,0.6,2.6,1.9,3.4
		c1.3,0.9,4.3,1.8,8.9,3c4.7,1.1,8.3,2.8,10.8,5.2C99.8,126.6,101.1,129.9,101.1,134.2"/>
	<path class="st0" d="M69,68.8L56.8,91c-0.8,1.4-2.5,1.9-4,1.1c-1.4-0.8-1.9-2.5-1.1-4L63.9,66c0.8-1.4,2.6-1.9,4-1.1
		C69.2,65.7,69.7,67.4,69,68.8"/>
	<path class="st0" d="M69.3,62.2c-1.4-0.8-1.9-2.5-1.1-3.9l1.8-3.3c0.8-1.4,2.5-1.9,3.9-1.1c1.4,0.8,1.9,2.5,1.1,3.9L73.3,61
		C72.5,62.5,70.7,63,69.3,62.2"/>
	<path class="st2" d="M222.1,190.1H4.2c-1.8,0-3.2-1.5-3.2-3.3c0-1.8,1.5-3.2,3.2-3.2h217.9c1.8,0,3.3,1.5,3.3,3.2
		C225.3,188.6,223.9,190.1,222.1,190.1"/>
	<path class="st2" d="M81.7,190.4c-29.9,0-69.6-5-69.6-48.4c0-18.2,7-39.7,18.7-57.3l33.2-59.4h35.4L132,83.6
		c0.3,0.5,0.6,0.9,0.8,1.4c11.5,17.5,18.4,38.8,18.4,57C151.3,185.3,111.5,190.4,81.7,190.4 M67.7,31.8L36.2,88.2
		c-11.1,16.7-17.7,36.8-17.7,53.8c0,28.9,19.5,41.9,63.1,41.9s63.1-12.9,63.1-41.9c0-16.9-6.5-36.9-17.3-53.4
		c-0.4-0.6-0.7-1.2-1.1-1.8L95.5,31.8H67.7z"/>
	<path class="st1" d="M110.9,4.8H49.5c-3.6,0-5.3,4.5-2.6,6.9l18.9,16.8H97l16.7-17C116.2,9,114.4,4.8,110.9,4.8"/>
	<path class="st2" d="M98.4,31.8H64.6L44.7,14.1c-2.2-2-3-5.1-1.9-7.9c1.1-2.8,3.7-4.6,6.7-4.6h61.4c2.9,0,5.5,1.7,6.6,4.4
		c1.1,2.7,0.5,5.7-1.5,7.8L98.4,31.8z M67.1,25.3h28.6l15.8-16.1c0.2-0.2,0.3-0.5,0.1-0.7c-0.1-0.3-0.3-0.4-0.6-0.4H49.5
		c-0.1,0-0.5,0-0.6,0.4c-0.2,0.4,0.1,0.7,0.2,0.8L67.1,25.3z"/>
	<path class="st2" d="M141,67c-1.5,0-2.8-1-3.2-2.5c-0.1-0.3-7.7-32.7-28-32.7H54c-1.8,0-3.3-1.5-3.3-3.2c0-1.8,1.5-3.3,3.3-3.3
		h55.9c25.5,0,34,36.3,34.4,37.8c0.4,1.8-0.7,3.5-2.4,3.9C141.5,67,141.3,67,141,67"/>
	<path class="st2" d="M146.8,47.1c-0.9,0-1.9-0.4-2.5-1.2c-7.1-8.6-20.7-14.2-34.5-14.2c-1.8,0-3.2-1.5-3.2-3.3
		c0-1.8,1.5-3.2,3.3-3.2c15.6,0.1,31.1,6.6,39.4,16.6c1.1,1.4,1,3.4-0.4,4.6C148.3,46.9,147.5,47.1,146.8,47.1"/>
	<path class="st0" d="M189.6,166.5h-26.2c-3.9,0-7,3.1-7,7v5.9c0,3.9,3.1,7,7,7h26.2c3.9,0,7-3.1,7-7v-5.9
		C196.6,169.6,193.5,166.5,189.6,166.5"/>
	<path class="st2" d="M189.6,189.7h-26.2c-5.7,0-10.3-4.6-10.3-10.3v-5.9c0-5.7,4.6-10.3,10.3-10.3h26.2c5.7,0,10.3,4.6,10.3,10.3
		v5.9C199.9,185,195.3,189.7,189.6,189.7 M163.4,169.7c-2.1,0-3.8,1.7-3.8,3.8v5.9c0,2.1,1.7,3.8,3.8,3.8h26.2
		c2.1,0,3.8-1.7,3.8-3.8v-5.9c0-2.1-1.7-3.8-3.8-3.8H163.4z"/>
	<path class="st1" d="M189.6,146.6h-26.2c-3.9,0-7,3.1-7,7v5.9c0,3.9,3.1,7,7,7h26.2c3.9,0,7-3.1,7-7v-5.9
		C196.6,149.7,193.5,146.6,189.6,146.6"/>
	<path class="st2" d="M189.6,169.7h-26.2c-5.7,0-10.3-4.6-10.3-10.3v-5.9c0-5.7,4.6-10.3,10.3-10.3h26.2c5.7,0,10.3,4.6,10.3,10.3
		v5.9C199.9,165.1,195.3,169.7,189.6,169.7 M163.4,149.8c-2.1,0-3.8,1.7-3.8,3.8v5.9c0,2.1,1.7,3.8,3.8,3.8h26.2
		c2.1,0,3.8-1.7,3.8-3.8v-5.9c0-2.1-1.7-3.8-3.8-3.8H163.4z"/>
	<path class="st0" d="M189.6,126.7h-26.2c-3.9,0-7,3.1-7,7v5.9c0,3.9,3.1,7,7,7h26.2c3.9,0,7-3.1,7-7v-5.9
		C196.6,129.8,193.5,126.7,189.6,126.7"/>
	<path class="st2" d="M189.6,149.8h-26.2c-5.7,0-10.3-4.6-10.3-10.3v-5.9c0-5.7,4.6-10.3,10.3-10.3h26.2c5.7,0,10.3,4.6,10.3,10.3
		v5.9C199.9,145.2,195.3,149.8,189.6,149.8 M163.4,129.9c-2.1,0-3.8,1.7-3.8,3.8v5.9c0,2.1,1.7,3.8,3.8,3.8h26.2
		c2.1,0,3.8-1.7,3.8-3.8v-5.9c0-2.1-1.7-3.8-3.8-3.8H163.4z"/>
	<path class="st1" d="M159.9,166.5h-26.2c-3.9,0-7,3.1-7,7v5.9c0,3.9,3.1,7,7,7h26.2c3.9,0,7-3.1,7-7v-5.9
		C166.9,169.6,163.8,166.5,159.9,166.5"/>
	<path class="st2" d="M159.9,189.7h-26.2c-5.7,0-10.3-4.6-10.3-10.3v-5.9c0-5.7,4.6-10.3,10.3-10.3h26.2c5.7,0,10.3,4.6,10.3,10.3
		v5.9C170.2,185,165.6,189.7,159.9,189.7 M133.7,169.7c-2.1,0-3.8,1.7-3.8,3.8v5.9c0,2.1,1.7,3.8,3.8,3.8h26.2
		c2.1,0,3.8-1.7,3.8-3.8v-5.9c0-2.1-1.7-3.8-3.8-3.8H133.7z"/>
	<path class="st0" d="M159.9,146.6h-26.2c-3.9,0-7,3.1-7,7v5.9c0,3.9,3.1,7,7,7h26.2c3.9,0,7-3.1,7-7v-5.9
		C166.9,149.7,163.8,146.6,159.9,146.6"/>
	<path class="st2" d="M159.9,169.7h-26.2c-5.7,0-10.3-4.6-10.3-10.3v-5.9c0-5.7,4.6-10.3,10.3-10.3h26.2c5.7,0,10.3,4.6,10.3,10.3
		v5.9C170.2,165.1,165.6,169.7,159.9,169.7 M133.7,149.8c-2.1,0-3.8,1.7-3.8,3.8v5.9c0,2.1,1.7,3.8,3.8,3.8h26.2
		c2.1,0,3.8-1.7,3.8-3.8v-5.9c0-2.1-1.7-3.8-3.8-3.8H133.7z"/>
	<path class="st1" d="M159.9,126.7h-26.2c-3.9,0-7,3.1-7,7v5.9c0,3.9,3.1,7,7,7h26.2c3.9,0,7-3.1,7-7v-5.9
		C166.9,129.8,163.8,126.7,159.9,126.7"/>
	<path class="st2" d="M159.9,149.8h-26.2c-5.7,0-10.3-4.6-10.3-10.3v-5.9c0-5.7,4.6-10.3,10.3-10.3h26.2c5.7,0,10.3,4.6,10.3,10.3
		v5.9C170.2,145.2,165.6,149.8,159.9,149.8 M133.7,129.9c-2.1,0-3.8,1.7-3.8,3.8v5.9c0,2.1,1.7,3.8,3.8,3.8h26.2
		c2.1,0,3.8-1.7,3.8-3.8v-5.9c0-2.1-1.7-3.8-3.8-3.8H133.7z"/>
	<path class="st0" d="M159.9,106.7h-26.2c-3.9,0-7,3.1-7,7v5.9c0,3.9,3.1,7,7,7h26.2c3.9,0,7-3.1,7-7v-5.9
		C166.9,109.9,163.8,106.7,159.9,106.7"/>
	<path class="st2" d="M159.9,129.9h-26.2c-5.7,0-10.3-4.6-10.3-10.3v-5.9c0-5.7,4.6-10.3,10.3-10.3h26.2c5.7,0,10.3,4.6,10.3,10.3
		v5.9C170.2,125.3,165.6,129.9,159.9,129.9 M133.7,110c-2.1,0-3.8,1.7-3.8,3.8v5.9c0,2.1,1.7,3.8,3.8,3.8h26.2
		c2.1,0,3.8-1.7,3.8-3.8v-5.9c0-2.1-1.7-3.8-3.8-3.8H133.7z"/>
	<path class="st1" d="M159.9,86.8h-26.2c-3.9,0-7,3.1-7,7v5.9c0,3.9,3.1,7,7,7h26.2c3.9,0,7-3.1,7-7v-5.9
		C166.9,90,163.8,86.8,159.9,86.8"/>
	<path class="st2" d="M159.9,110h-26.2c-5.7,0-10.3-4.6-10.3-10.3v-5.9c0-5.7,4.6-10.3,10.3-10.3h26.2c5.7,0,10.3,4.6,10.3,10.3v5.9
		C170.2,105.4,165.6,110,159.9,110 M133.7,90.1c-2.1,0-3.8,1.7-3.8,3.8v5.9c0,2.1,1.7,3.8,3.8,3.8h26.2c2.1,0,3.8-1.7,3.8-3.8v-5.9
		c0-2.1-1.7-3.8-3.8-3.8H133.7z"/>
</g>
</svg>
