<?xml version="1.0" encoding="utf-8"?>
<!-- Generator: Adobe Illustrator 22.0.1, SVG Export Plug-In . SVG Version: 6.00 Build 0)  -->
<svg version="1.1" id="Layer_1" xmlns="http://www.w3.org/2000/svg" xmlns:xlink="http://www.w3.org/1999/xlink" x="0px" y="0px"
	 viewBox="0 0 141.5 236.2" style="enable-background:new 0 0 141.5 236.2;" xml:space="preserve">
<style type="text/css">
	.st0{clip-path:url(#SVGID_2_);fill:#221F1F;}
	.st1{clip-path:url(#SVGID_2_);fill:#4FB648;}
</style>
<g>
	<defs>
		<rect id="SVGID_1_" width="141.5" height="236.2"/>
	</defs>
	<clipPath id="SVGID_2_">
		<use xlink:href="#SVGID_1_"  style="overflow:visible;"/>
	</clipPath>
	<path class="st0" d="M65.5,139.1l36.8-36.8c8.4-8.4,13.1-19.6,13.1-31.5c0-11.9-4.6-23.1-13.1-31.5c-8.4-8.4-19.6-13.1-31.5-13.1
		c-11.9,0-23.1,4.6-31.5,13.1c-8.4,8.4-13.1,19.6-13.1,31.5c0,6.8,1.6,13.6,4.6,19.7L13.3,108c-0.6,0.6-1.1,1.1-1.6,1.7
		C4,98.1,0,84.7,0,70.8c0-18.9,7.4-36.7,20.7-50C34.1,7.4,51.9,0,70.8,0c18.9,0,36.7,7.4,50,20.7c13.4,13.4,20.7,31.1,20.7,50
		c0,14.5-4.3,28.4-12.6,40.3c-1.5,2.1-3.1,4.2-4.8,6.2c-1.1,1.2-2.2,2.4-3.3,3.6L84,157.6L65.5,139.1z"/>
	<path class="st0" d="M70.8,236.2c-18.9,0-36.7-7.4-50-20.7C7.4,202.1,0,184.4,0,165.5c0-14.5,4.3-28.4,12.6-40.3
		c1.5-2.1,3.1-4.2,4.8-6.2c1.1-1.2,2.2-2.4,3.3-3.6l31.5-31.5l18.5,18.5l-31.5,31.5c-8.4,8.4-13.1,19.6-13.1,31.5
		c0,11.9,4.6,23.1,13.1,31.5c8.4,8.4,19.6,13.1,31.5,13.1c11.9,0,23.1-4.6,31.5-13.1c8.4-8.4,13.1-19.6,13.1-31.5
		c0-6.8-1.6-13.6-4.6-19.7l17.5-17.5c0.6-0.6,1.1-1.1,1.6-1.7c7.6,11.5,11.6,24.9,11.6,38.9c0,18.9-7.4,36.7-20.7,50
		C107.4,228.9,89.7,236.2,70.8,236.2"/>
	<polygon class="st1" points="49.2,65.8 88.1,65.8 88.1,104.7 	"/>
</g>
</svg>
