<?xml version="1.0" encoding="utf-8"?>
<!-- Generator: Adobe Illustrator 22.0.1, SVG Export Plug-In . SVG Version: 6.00 Build 0)  -->
<svg version="1.1" id="Layer_1" xmlns="http://www.w3.org/2000/svg" xmlns:xlink="http://www.w3.org/1999/xlink" x="0px" y="0px"
	 viewBox="0 0 54.2 47.8" style="enable-background:new 0 0 54.2 47.8;" xml:space="preserve">
<style type="text/css">
	.st0{clip-path:url(#SVGID_2_);fill:#4FB648;}
	.st1{clip-path:url(#SVGID_2_);fill:#171940;}
	.st2{clip-path:url(#SVGID_2_);fill:#221F1F;}
</style>
<g>
	<defs>
		<rect id="SVGID_1_" y="0" width="54.2" height="47.8"/>
	</defs>
	<clipPath id="SVGID_2_">
		<use xlink:href="#SVGID_1_"  style="overflow:visible;"/>
	</clipPath>
	<path class="st0" d="M49.4,17.1c0,0.6-0.5,1.1-1.1,1.1s-1.1-0.5-1.1-1.1c0-0.6,0.5-1.1,1.1-1.1S49.4,16.5,49.4,17.1"/>
	<path class="st1" d="M21.4,23.3c0,0.6-0.5,1.1-1.1,1.1c-0.6,0-1.1-0.5-1.1-1.1c0-0.6,0.5-1.1,1.1-1.1
		C20.9,22.2,21.4,22.7,21.4,23.3"/>
	<path class="st2" d="M51.1,5.1h-8.2c-0.5-2.9-3-5.1-6.1-5.1s-5.6,2.2-6.1,5.1h-8.2c-1.7,0-3.2,1.4-3.2,3.2v5.3h-5.9
		c0.6-0.8,0.9-1.8,0.9-2.9c0-2.8-2.3-5-5-5c-2.8,0-5,2.3-5,5c0,1.4,0.6,2.7,1.6,3.6C2.4,15.7,0,19.1,0,22.9v7.9
		c0,2.4,1.9,4.4,4.3,4.6v10.3H1.6c-0.6,0-1.1,0.5-1.1,1.1s0.5,1.1,1.1,1.1h29.2h0h0h12.7h0h0h8.7c0.6,0,1.1-0.5,1.1-1.1
		s-0.5-1.1-1.1-1.1h-8l-3-9h9.9c1.7,0,3.2-1.4,3.2-3.2V8.3C54.2,6.5,52.8,5.1,51.1,5.1 M36.8,2.1c1.9,0,3.4,1.3,3.9,3h-7.8
		C33.3,3.4,34.9,2.1,36.8,2.1 M9.3,7.8c1.6,0,2.9,1.3,2.9,2.9c0,1.6-1.3,2.9-2.9,2.9c-1.6,0-2.9-1.3-2.9-2.9
		C6.4,9.1,7.7,7.8,9.3,7.8 M12.9,19.1v26.6h-2.2V33.8c0-0.6-0.5-1.1-1.1-1.1c-0.6,0-1.1,0.5-1.1,1.1v11.9H6.4V23.2
		c0-0.6-0.5-1.1-1.1-1.1s-1.1,0.5-1.1,1.1v10.1C3,33.1,2.1,32,2.1,30.8v-7.9c0-4,3.3-7.2,7.4-7.2H29c-0.4,1.3-1.7,2.3-3.2,2.3H14
		C13.4,18,12.9,18.5,12.9,19.1 M42,45.7h-9.7l3-9H39L42,45.7z M52.1,33.5c0,0.6-0.5,1-1,1H22.5c-0.6,0-1-0.5-1-1v-6.2
		c0-0.6-0.5-1.1-1.1-1.1s-1.1,0.5-1.1,1.1v6.2c0,1.7,1.4,3.2,3.2,3.2h10.6l-3,9H15V20.2h10.8c3,0,5.5-2.5,5.5-5.5
		c0-0.6-0.5-1.1-1.1-1.1h-8.8V8.3c0-0.6,0.5-1,1-1h28.6c0.6,0,1,0.5,1,1V33.5z"/>
	<path class="st0" d="M45.9,19.6c-0.4-0.4-1.1-0.4-1.5,0l-4.5,4.5l-1.7-1.7c-0.4-0.4-1.1-0.4-1.5,0l-5.8,5.8l-1.6-1.6
		c-0.2-0.2-0.5-0.3-0.7-0.3c-0.3,0-0.6,0.1-0.7,0.3l-3,3c-0.4,0.4-0.4,1.1,0,1.5c0.2,0.2,0.5,0.3,0.7,0.3s0.5-0.1,0.7-0.3l2.3-2.3
		l1.6,1.6c0.4,0.4,1.1,0.4,1.5,0l5.8-5.8l1.7,1.7c0.4,0.4,1.1,0.4,1.5,0l5.3-5.3C46.3,20.7,46.3,20,45.9,19.6"/>
</g>
</svg>
