<?xml version="1.0" encoding="utf-8"?>
<!-- Generator: Adobe Illustrator 22.0.1, SVG Export Plug-In . SVG Version: 6.00 Build 0)  -->
<svg version="1.1" id="Layer_1" xmlns="http://www.w3.org/2000/svg" xmlns:xlink="http://www.w3.org/1999/xlink" x="0px" y="0px"
	 viewBox="0 0 54.2 48.9" style="enable-background:new 0 0 54.2 48.9;" xml:space="preserve">
<style type="text/css">
	.st0{clip-path:url(#SVGID_2_);fill:#4FB648;}
	.st1{clip-path:url(#SVGID_2_);fill:#221F1F;}
</style>
<g>
	<defs>
		<rect id="SVGID_1_" y="0" width="54.2" height="48.9"/>
	</defs>
	<clipPath id="SVGID_2_">
		<use xlink:href="#SVGID_1_"  style="overflow:visible;"/>
	</clipPath>
	<path class="st0" d="M33.6,0H20.7c-2,0-3.6,1.6-3.6,3.6v1.7c0,0.6,0.5,1.1,1.1,1.1s1.1-0.5,1.1-1.1V3.6c0-0.8,0.7-1.5,1.5-1.5h12.9
		c0.8,0,1.5,0.7,1.5,1.5v1.7c0,0.6,0.5,1.1,1.1,1.1c0.6,0,1.1-0.5,1.1-1.1V3.6C37.3,1.6,35.6,0,33.6,0"/>
	<path class="st1" d="M49.1,8.6H5.2C2.3,8.6,0,10.9,0,13.7v9.4c0,0.5,0.3,0.9,0.8,1l0.6,0.2v22.2c0,1.3,1,2.3,2.3,2.3h46.8
		c1.3,0,2.3-1,2.3-2.3v-22l0.6-0.2c0.5-0.1,0.8-0.5,0.8-1v-9.6C54.2,10.9,51.9,8.6,49.1,8.6 M9.5,46.8H3.7c-0.1,0-0.2-0.1-0.2-0.2
		v-5.7h3c1.6,0,2.9,1.3,2.9,2.9V46.8z M50.7,46.5c0,0.1-0.1,0.2-0.2,0.2h-5.7v-3c0-1.6,1.3-2.9,2.9-2.9h3V46.5z M50.7,38.7h-3
		c-2.8,0-5,2.2-5,5v3H11.6v-3c0-2.8-2.2-5-5-5h-3V25l18.7,5.5v3.4c0,0.6,0.5,1.1,1.1,1.1H31c0.6,0,1.1-0.5,1.1-1.1v-3.4l18.7-5.4
		V38.7z M24.3,27.7h5.5v5.2h-5.5V27.7z M52.1,22.5L32,28.3v-1.7c0-0.6-0.5-1.1-1.1-1.1h-7.7c-0.6,0-1.1,0.5-1.1,1.1v1.7L2.1,22.3
		v-8.6c0-1.7,1.4-3.1,3.1-3.1h4.3v3.7c0,0.6,0.5,1.1,1.1,1.1s1.1-0.5,1.1-1.1v-3.7h30.7v3.7c0,0.6,0.5,1.1,1.1,1.1
		c0.6,0,1.1-0.5,1.1-1.1v-3.7h4.7c1.7,0,3.1,1.4,3.1,3.1V22.5z"/>
	<path class="st1" d="M44.4,18.4c0,0.6-0.5,1.1-1.1,1.1c-0.6,0-1.1-0.5-1.1-1.1c0-0.6,0.5-1.1,1.1-1.1
		C43.9,17.4,44.4,17.8,44.4,18.4"/>
	<path class="st1" d="M11.6,18.4c0,0.6-0.5,1.1-1.1,1.1S9.5,19,9.5,18.4c0-0.6,0.5-1.1,1.1-1.1S11.6,17.8,11.6,18.4"/>
</g>
</svg>
