<?xml version="1.0" encoding="utf-8"?>
<!-- Generator: Adobe Illustrator 22.0.1, SVG Export Plug-In . SVG Version: 6.00 Build 0)  -->
<svg version="1.1" id="Layer_1" xmlns="http://www.w3.org/2000/svg" xmlns:xlink="http://www.w3.org/1999/xlink" x="0px" y="0px"
	 viewBox="0 0 54.2 40.6" style="enable-background:new 0 0 54.2 40.6;" xml:space="preserve">
<style type="text/css">
	.st0{clip-path:url(#SVGID_2_);fill:#4FB648;}
	.st1{clip-path:url(#SVGID_2_);fill:#221F1F;}
</style>
<g>
	<defs>
		<rect id="SVGID_1_" y="0" width="54.2" height="40.6"/>
	</defs>
	<clipPath id="SVGID_2_">
		<use xlink:href="#SVGID_1_"  style="overflow:visible;"/>
	</clipPath>
	<path class="st0" d="M16.5,18.8c0,0.6-0.5,1.1-1.1,1.1s-1.1-0.5-1.1-1.1c0-0.6,0.5-1.1,1.1-1.1S16.5,18.2,16.5,18.8"/>
	<path class="st0" d="M22.5,22.3c0,0.6-0.5,1.1-1.1,1.1c-0.6,0-1.1-0.5-1.1-1.1c0-0.6,0.5-1.1,1.1-1.1C22,21.3,22.5,21.7,22.5,22.3"
		/>
	<path class="st0" d="M28.5,15.8c0,0.6-0.5,1.1-1.1,1.1c-0.6,0-1.1-0.5-1.1-1.1c0-0.6,0.5-1.1,1.1-1.1
		C28.1,14.7,28.5,15.2,28.5,15.8"/>
	<path class="st0" d="M34.5,18.4c0,0.6-0.5,1.1-1.1,1.1s-1.1-0.5-1.1-1.1c0-0.6,0.5-1.1,1.1-1.1S34.5,17.8,34.5,18.4"/>
	<path class="st0" d="M40.3,10.9c0,0.6-0.5,1.1-1.1,1.1c-0.6,0-1.1-0.5-1.1-1.1c0-0.6,0.5-1.1,1.1-1.1C39.8,9.8,40.3,10.3,40.3,10.9
		"/>
	<path class="st1" d="M53.2,31.8H31.7c-0.6,0-1.1,0.5-1.1,1.1c0,1-0.8,1.8-1.8,1.8h-3.5c-1,0-1.8-0.8-1.8-1.8c0-0.6-0.5-1.1-1.1-1.1
		H5.8V4.4c0-1.2,1-2.2,2.2-2.2h38.2c1.2,0,2.2,1,2.2,2.2v20.4c0,0.6,0.5,1.1,1.1,1.1c0.6,0,1.1-0.5,1.1-1.1V4.4c0-2.4-2-4.4-4.4-4.4
		H8C5.6,0,3.7,2,3.7,4.4v27.4H1.1c-0.6,0-1.1,0.5-1.1,1.1v1.7c0,3.3,2.7,6,6,6h42.2c3.3,0,6-2.7,6-6v-1.7
		C54.2,32.3,53.8,31.8,53.2,31.8 M52.1,34.5c0,2.2-1.8,3.9-3.9,3.9H6c-2.2,0-3.9-1.8-3.9-3.9v-0.6h19.5c0.5,1.6,2,2.8,3.8,2.8h3.5
		c1.8,0,3.3-1.2,3.8-2.8h19.5V34.5z"/>
	<path class="st0" d="M45.1,4.5H9.5C8.9,4.5,8.4,5,8.4,5.6v22.8c0,0.6,0.5,1.1,1.1,1.1h35.7c0.6,0,1.1-0.5,1.1-1.1V5.6
		C46.2,5,45.7,4.5,45.1,4.5 M44.1,27.3h-3.8V14.6c0-0.6-0.5-1.1-1.1-1.1c-0.6,0-1.1,0.5-1.1,1.1v12.7h-3.8v-4.7
		c0-0.6-0.5-1.1-1.1-1.1c-0.6,0-1.1,0.5-1.1,1.1v4.7h-3.8v-7.2c0-0.6-0.5-1.1-1.1-1.1c-0.6,0-1.1,0.5-1.1,1.1v7.2h-3.8v-1
		c0-0.6-0.5-1.1-1.1-1.1c-0.6,0-1.1,0.5-1.1,1.1v1h-3.8v-4.2c0-0.6-0.5-1.1-1.1-1.1c-0.6,0-1.1,0.5-1.1,1.1v4.2h-3.8V6.6h33.6V27.3z
		"/>
	<path class="st1" d="M50.4,28.9c0,0.6-0.5,1.1-1.1,1.1s-1.1-0.5-1.1-1.1s0.5-1.1,1.1-1.1S50.4,28.3,50.4,28.9"/>
</g>
</svg>
