<?xml version="1.0" encoding="utf-8"?>
<!-- Generator: Adobe Illustrator 22.0.1, SVG Export Plug-In . SVG Version: 6.00 Build 0)  -->
<svg version="1.1" id="Isolation_Mode" xmlns="http://www.w3.org/2000/svg" xmlns:xlink="http://www.w3.org/1999/xlink" x="0px"
	 y="0px" viewBox="0 0 44.7 54.6" style="enable-background:new 0 0 44.7 54.6;" xml:space="preserve">
<style type="text/css">
	.st0{fill:#221F1F;}
	.st1{fill:#4FB648;}
</style>
<g id="XMLID_6_">
	<path id="XMLID_22_" class="st0" d="M41.5,4.4H27.6c-0.5-2.4-2.6-4.2-5.2-4.2c-2.5,0-4.7,1.8-5.2,4.2H3.3c-1.6,0-2.8,1.3-2.8,2.8
		v30.1c0,1.6,1.3,2.8,2.8,2.8h13.2L12.2,53c-0.2,0.6,0.1,1.2,0.7,1.3c0.1,0,0.2,0.1,0.3,0.1c0.4,0,0.9-0.3,1-0.7l4.5-13.5H26
		l4.5,13.5c0.1,0.4,0.6,0.7,1,0.7c0.1,0,0.2,0,0.3-0.1c0.6-0.2,0.9-0.8,0.7-1.3l-4.3-12.8h13.2c1.6,0,2.8-1.3,2.8-2.8V7.2
		C44.3,5.6,43.1,4.4,41.5,4.4L41.5,4.4z M22.4,2.3c1.4,0,2.5,0.9,3,2.1h-5.9C19.9,3.1,21,2.3,22.4,2.3L22.4,2.3z M42.2,37.4
		c0,0.4-0.3,0.7-0.7,0.7h-2.8V23c0-0.6-0.5-1.1-1.1-1.1c-0.6,0-1.1,0.5-1.1,1.1v15.1h-3.3V26.2c0-0.6-0.5-1.1-1.1-1.1
		c-0.6,0-1.1,0.5-1.1,1.1v11.9h-3v-8.4c0-0.6-0.5-1.1-1.1-1.1c-0.6,0-1.1,0.5-1.1,1.1v8.4h-2.7V27c0-0.6-0.5-1.1-1.1-1.1
		c-0.6,0-1.1,0.5-1.1,1.1v11.1h-3.1v-5.8c0-0.6-0.5-1.1-1.1-1.1c-0.6,0-1.1,0.5-1.1,1.1v5.8h-2.5v-5.4c0-0.6-0.5-1.1-1.1-1.1
		c-0.6,0-1.1,0.5-1.1,1.1v5.4H8.7v-4.2c0-0.6-0.5-1.1-1.1-1.1c-0.6,0-1.1,0.5-1.1,1.1v4.2H3.3c-0.4,0-0.7-0.3-0.7-0.7V7.2
		c0-0.4,0.3-0.7,0.7-0.7h38.2c0.4,0,0.7,0.3,0.7,0.7V37.4z M42.2,37.4"/>
	<path id="XMLID_19_" class="st1" d="M38.7,11.5C38.7,11.5,38.7,11.4,38.7,11.5c0-0.1,0-0.1,0-0.1c0,0,0,0,0,0c0,0,0,0,0-0.1
		c0,0,0,0,0,0c0,0,0,0,0-0.1c0,0,0,0,0,0c0,0,0,0,0-0.1c0,0,0,0,0,0c0,0,0,0,0,0c0,0,0,0,0,0c0,0,0,0,0,0c0,0,0,0-0.1-0.1
		c0,0,0,0,0,0c0,0,0,0,0,0c0,0,0,0-0.1-0.1c0,0,0,0,0,0c0,0,0,0,0,0c0,0,0,0,0,0c0,0,0,0,0,0c0,0,0,0,0,0c0,0,0,0,0,0c0,0,0,0,0,0
		c0,0,0,0-0.1,0c0,0,0,0,0,0c0,0,0,0-0.1,0c0,0,0,0,0,0c0,0,0,0-0.1,0c0,0-0.1,0-0.1,0c0,0,0,0,0,0h-4.6c-0.6,0-1.1,0.5-1.1,1.1
		s0.5,1.1,1.1,1.1h2l-8.8,8.8L24,19.1c-0.2-0.2-0.5-0.3-0.7-0.3c-0.3,0-0.6,0.1-0.7,0.3l-7.6,7.6l-2.3-2.3c-0.4-0.4-1.1-0.4-1.5,0
		l-3.9,3.9c-0.4,0.4-0.4,1.1,0,1.5c0.2,0.2,0.5,0.3,0.7,0.3c0.3,0,0.5-0.1,0.7-0.3l3.1-3.1l2.3,2.3c0.4,0.4,1.1,0.4,1.5,0l7.6-7.6
		l2.3,2.3c0.2,0.2,0.5,0.3,0.7,0.3c0.3,0,0.6-0.1,0.7-0.3l9.5-9.5v2c0,0.6,0.5,1.1,1.1,1.1c0.6,0,1.1-0.5,1.1-1.1v-4.6
		C38.7,11.5,38.7,11.5,38.7,11.5L38.7,11.5z M38.7,11.5"/>
	<path id="XMLID_14_" class="st1" d="M9,11.6c0,0.6-0.5,1.1-1.1,1.1c-0.6,0-1.1-0.5-1.1-1.1c0-0.6,0.5-1.1,1.1-1.1
		C8.5,10.5,9,11,9,11.6L9,11.6z M9,11.6"/>
	<path id="XMLID_11_" class="st1" d="M9,15.9C9,16.5,8.5,17,8,17c-0.6,0-1.1-0.5-1.1-1.1c0-0.6,0.5-1.1,1.1-1.1
		C8.5,14.8,9,15.3,9,15.9L9,15.9z M9,15.9"/>
	<path id="XMLID_8_" class="st1" d="M9,20.2c0,0.6-0.5,1.1-1.1,1.1c-0.6,0-1.1-0.5-1.1-1.1c0-0.6,0.5-1.1,1.1-1.1
		C8.5,19.2,9,19.6,9,20.2L9,20.2z M9,20.2"/>
</g>
</svg>
