<?xml version="1.0" encoding="utf-8"?>
<!-- Generator: Adobe Illustrator 22.0.1, SVG Export Plug-In . SVG Version: 6.00 Build 0)  -->
<svg version="1.1" id="Layer_1" xmlns="http://www.w3.org/2000/svg" xmlns:xlink="http://www.w3.org/1999/xlink" x="0px" y="0px"
	 viewBox="0 0 63.5 62.8" style="enable-background:new 0 0 63.5 62.8;" xml:space="preserve">
<style type="text/css">
	.st0{fill:#221F1F;}
	.st1{fill:#4FB648;}
</style>
<g>
	<g>
		<path class="st0" d="M59.4,25.7c2-1.5,3.3-3.9,3.3-6.5c0-4.5-3.7-8.2-8.2-8.2s-8.2,3.7-8.2,8.2c0,2.5,1.1,4.7,2.8,6.2h-5.5
			l-6.9-6.9c-0.4-0.4-1.1-0.4-1.5,0l-4.1,4.1c-0.4,0.4-0.4,1.1,0,1.5l9.2,9.2c0.2,0.2,0.5,0.3,0.7,0.3h8.2v7.2h-5.1H31.7l5.1-7.6
			l-1.7-1.1l-5.9,8.8h-2.5v-5.1c0-0.6-0.5-1-1-1h-8.2v-4.1c0-2.2-1.4-4-3.3-4.8c2-1.5,3.3-3.9,3.3-6.5c0-4.5-3.7-8.2-8.2-8.2
			S1,14.6,1,19.1c0,2.7,1.3,5,3.3,6.5C2.4,26.4,1,28.3,1,30.4v14.4c0,2.8,2.3,5.1,5.1,5.1v12.3h2.1V49.9h7.2v11.3c0,0.6,0.5,1,1,1
			h7.2c0.6,0,1-0.5,1-1V45.8c0-1.2-0.4-2.2-1-3.1h1h1h5.1v17.5h-4.1v2.1h10.3v-2.1h-4.1V42.7h7.2c-0.7,0.9-1.1,1.9-1.1,3.1v15.4
			c0,0.6,0.5,1,1,1h7.2c0.6,0,1-0.5,1-1V49.9h7.2v12.3h2.1V49.9c2.8,0,5.1-2.3,5.1-5.1V30.4C62.6,28.3,61.3,26.4,59.4,25.7z
			 M3.1,19.1c0-3.4,2.8-6.2,6.2-6.2s6.2,2.8,6.2,6.2s-2.8,6.2-6.2,6.2S3.1,22.5,3.1,19.1z M24.6,40.7H11.3v-8.2H9.2v9.2
			c0,0.6,0.5,1,1,1h9.2c1.7,0,3.1,1.4,3.1,3.1v14.4h-5.1V48.9c0-0.6-0.5-1-1-1H6.1c-1.7,0-3.1-1.4-3.1-3.1V30.4
			c0-1.7,1.4-3.1,3.1-3.1h6.2c1.7,0,3.1,1.4,3.1,3.1v5.1c0,0.6,0.5,1,1,1h8.2V40.7z M48.2,19.1c0-3.4,2.8-6.2,6.2-6.2
			s6.2,2.8,6.2,6.2s-2.8,6.2-6.2,6.2S48.2,22.5,48.2,19.1z M60.6,44.8c0,1.7-1.4,3.1-3.1,3.1H47.2c-0.6,0-1,0.5-1,1v11.3h-5.1V45.8
			c0-1.7,1.4-3.1,3.1-3.1h6.2c0.6,0,1-0.5,1-1v-9.2c0-0.6-0.5-1-1-1h-8.8l-8.2-8.2l2.7-2.7l6.5,6.5c0.2,0.2,0.5,0.3,0.7,0.3h14.4
			c1.7,0,3.1,1.4,3.1,3.1V44.8z"/>
	</g>
</g>
<g>
	<g>
		<g>
			<path class="st1" d="M42.1,0.7H21.5c-1.7,0-3.1,1.4-3.1,3.1V12c0,1.7,1.4,3.1,3.1,3.1h1v6.2c0,0.4,0.2,0.8,0.6,0.9
				c0.1,0.1,0.3,0.1,0.4,0.1c0.3,0,0.5-0.1,0.7-0.3l6.9-6.9h10.9c1.7,0,3.1-1.4,3.1-3.1V3.7C45.2,2,43.8,0.7,42.1,0.7z M43.1,12
				c0,0.6-0.5,1-1,1H30.8c-0.3,0-0.5,0.1-0.7,0.3l-5.4,5.4V14c0-0.6-0.5-1-1-1h-2.1c-0.6,0-1-0.5-1-1V3.7c0-0.6,0.5-1,1-1h20.5
				c0.6,0,1,0.5,1,1V12z"/>
		</g>
	</g>
</g>
<g>
	<g>
		<rect x="22.6" y="4.8" class="st1" width="6.2" height="2.1"/>
	</g>
</g>
<g>
	<g>
		<rect x="22.6" y="8.9" class="st1" width="18.5" height="2.1"/>
	</g>
</g>
<g>
	<g>
		<rect x="30.8" y="4.8" class="st1" width="10.3" height="2.1"/>
	</g>
</g>
</svg>
