<?xml version="1.0" encoding="utf-8"?>
<!-- Generator: Adobe Illustrator 22.0.1, SVG Export Plug-In . SVG Version: 6.00 Build 0)  -->
<svg version="1.1" id="Layer_1" xmlns="http://www.w3.org/2000/svg" xmlns:xlink="http://www.w3.org/1999/xlink" x="0px" y="0px"
	 viewBox="0 0 47.3 60.6" style="enable-background:new 0 0 47.3 60.6;" xml:space="preserve">
<style type="text/css">
	.st0{clip-path:url(#SVGID_2_);}
	.st1{clip-path:url(#SVGID_2_);fill:#4FB648;}
</style>
<g>
	<defs>
		<rect id="SVGID_1_" y="0" width="47.3" height="60.6"/>
	</defs>
	<clipPath id="SVGID_2_">
		<use xlink:href="#SVGID_1_"  style="overflow:visible;"/>
	</clipPath>
	<path class="st0" d="M4.4,60.6c-2.4,0-4.4-2-4.4-4.5V33.9c0-2.5,2-4.5,4.4-4.5h3.2l0.1-0.3c1.4-3.4,3.8-6.3,7-8.2l0.4-0.3l-0.3-0.4
		c-1-1.6-1.5-3.5-1.5-5.3v-4.6C13.3,4.6,18,0,23.6,0s10.3,4.6,10.3,10.3v4.6c0,1.9-0.5,3.7-1.5,5.3l-0.3,0.4l0.4,0.3
		c3.1,1.9,5.6,4.8,7,8.2l0.1,0.3h3.2c2.4,0,4.4,2,4.4,4.5v22.2c0,2.5-2,4.5-4.4,4.5H4.4z M4.4,31.6c-1.2,0-2.2,1-2.2,2.3v22.2
		c0,1.2,1,2.3,2.2,2.3h38.5c1.2,0,2.2-1,2.2-2.3V33.9c0-1.2-1-2.3-2.2-2.3h-12c-0.6,0-1.1-0.5-1.1-1.1s0.5-1.1,1.1-1.1h6.4l-0.4-0.7
		c-1.3-2.6-3.4-4.7-5.9-6.1l-0.3-0.2l-0.3,0.2c-1.9,1.7-4.3,2.6-6.8,2.6s-4.9-0.9-6.8-2.6l-0.3-0.2l-0.3,0.2
		c-2.5,1.4-4.6,3.6-5.9,6.1L10,29.4h6.4c0.6,0,1.1,0.5,1.1,1.1s-0.5,1.1-1.1,1.1H4.4z M23.6,2.2c-4.5,0-8.1,3.6-8.1,8.1v4.6
		c0,4.5,3.6,8.1,8.1,8.1s8.1-3.6,8.1-8.1v-4.6C31.7,5.8,28.1,2.2,23.6,2.2"/>
	<path class="st1" d="M23.6,50.1c-2.8,0-5.1-2.3-5.1-5.1c0-2.8,2.3-5.1,5.1-5.1c2.8,0,5.1,2.3,5.1,5.1
		C28.8,47.8,26.5,50.1,23.6,50.1 M23.6,42.1c-1.6,0-2.9,1.3-2.9,2.9c0,1.6,1.3,2.9,2.9,2.9c1.6,0,2.9-1.3,2.9-2.9
		C26.5,43.4,25.2,42.1,23.6,42.1"/>
	<path class="st0" d="M23.6,31.6c-0.6,0-1.1-0.5-1.1-1.1s0.5-1.1,1.1-1.1c0.6,0,1.1,0.5,1.1,1.1S24.2,31.6,23.6,31.6"/>
</g>
</svg>
