<?xml version="1.0" encoding="utf-8"?>
<!-- Generator: Adobe Illustrator 22.0.1, SVG Export Plug-In . SVG Version: 6.00 Build 0)  -->
<svg version="1.1" id="Layer_1" xmlns="http://www.w3.org/2000/svg" xmlns:xlink="http://www.w3.org/1999/xlink" x="0px" y="0px"
	 viewBox="0 0 54.2 54.2" style="enable-background:new 0 0 54.2 54.2;" xml:space="preserve">
<style type="text/css">
	.st0{clip-path:url(#SVGID_2_);fill:#221F1F;}
	.st1{clip-path:url(#SVGID_2_);fill:#4FB648;}
</style>
<g>
	<defs>
		<rect id="SVGID_1_" y="0" width="54.2" height="54.2"/>
	</defs>
	<clipPath id="SVGID_2_">
		<use xlink:href="#SVGID_1_"  style="overflow:visible;"/>
	</clipPath>
	<path class="st0" d="M50.5,46.7c2,0,3.7-1.7,3.7-3.7V5.3c0-2.9-2.4-5.3-5.3-5.3H5.3C2.4,0,0,2.4,0,5.3V43c0,2,1.7,3.7,3.7,3.7h1.2
		v5.5H1.1c-0.6,0-1.1,0.5-1.1,1.1s0.5,1.1,1.1,1.1h52.1c0.6,0,1.1-0.5,1.1-1.1s-0.5-1.1-1.1-1.1h-3.8v-5.5H50.5z M2.1,5.3
		c0-1.8,1.4-3.2,3.2-3.2h43.6c1.8,0,3.2,1.4,3.2,3.2v2.3H2.2c0,0-0.1,0-0.1,0V5.3z M11.7,52.1H7v-9.5h4.7V52.1z M23.5,52.1h-4.7
		V30.9h4.7V52.1z M35.4,52.1h-4.7V39.8h4.7V52.1z M48.3,27.2h-6.8c-0.6,0-1.1,0.5-1.1,1.1v5.3c0,0.6,0.5,1.1,1.1,1.1
		s1.1-0.5,1.1-1.1v-4.3h4.7v22.8h-4.7V40.7c0-0.6-0.5-1.1-1.1-1.1s-1.1,0.5-1.1,1.1v11.4h-3V38.8c0-0.6-0.5-1.1-1.1-1.1h-6.8
		c-0.6,0-1.1,0.5-1.1,1.1v13.3h-3V29.8c0-0.6-0.5-1.1-1.1-1.1h-6.8c-0.6,0-1.1,0.5-1.1,1.1v22.3h-3V41.5c0-0.6-0.5-1.1-1.1-1.1H5.9
		c-0.6,0-1.1,0.5-1.1,1.1v3H3.7c-0.9,0-1.6-0.7-1.6-1.6V9.7c0,0,0.1,0,0.1,0h49.9V43c0,0.9-0.7,1.6-1.6,1.6h-1.2V28.2
		C49.4,27.6,48.9,27.2,48.3,27.2"/>
	<path class="st0" d="M47.5,3.8H23.5c-0.6,0-1.1,0.5-1.1,1.1s0.5,1.1,1.1,1.1h23.9c0.6,0,1.1-0.5,1.1-1.1S48,3.8,47.5,3.8"/>
	<path class="st0" d="M11.8,4.1c-0.2-0.2-0.5-0.3-0.7-0.3c-0.3,0-0.6,0.1-0.7,0.3C10.1,4.3,10,4.6,10,4.9c0,0.3,0.1,0.6,0.3,0.7
		c0.2,0.2,0.5,0.3,0.7,0.3c0.3,0,0.6-0.1,0.7-0.3c0.2-0.2,0.3-0.5,0.3-0.7C12.1,4.6,12,4.3,11.8,4.1"/>
	<path class="st0" d="M7.5,4.1C7.3,3.9,7.1,3.8,6.8,3.8C6.5,3.8,6.2,3.9,6,4.1C5.8,4.3,5.7,4.6,5.7,4.9c0,0.3,0.1,0.6,0.3,0.7
		c0.2,0.2,0.5,0.3,0.7,0.3c0.3,0,0.6-0.1,0.7-0.3c0.2-0.2,0.3-0.5,0.3-0.7C7.8,4.6,7.7,4.3,7.5,4.1"/>
	<path class="st0" d="M16,4.1c-0.2-0.2-0.5-0.3-0.7-0.3c-0.3,0-0.6,0.1-0.7,0.3c-0.2,0.2-0.3,0.5-0.3,0.7c0,0.3,0.1,0.6,0.3,0.7
		c0.2,0.2,0.5,0.3,0.7,0.3c0.3,0,0.6-0.1,0.7-0.3c0.2-0.2,0.3-0.5,0.3-0.7C16.3,4.6,16.2,4.3,16,4.1"/>
	<path class="st0" d="M42.3,36.6c-0.2-0.2-0.5-0.3-0.7-0.3c-0.3,0-0.6,0.1-0.7,0.3c-0.2,0.2-0.3,0.5-0.3,0.7c0,0.3,0.1,0.6,0.3,0.7
		c0.2,0.2,0.5,0.3,0.7,0.3c0.3,0,0.6-0.1,0.7-0.3c0.2-0.2,0.3-0.5,0.3-0.7C42.6,37.1,42.5,36.8,42.3,36.6"/>
	<path class="st1" d="M44.9,14.4c-2.1,0-3.8,1.7-3.8,3.8c0,0.8,0.3,1.6,0.7,2.2l-7,7C34.2,27.2,33.6,27,33,27
		c-0.6,0-1.2,0.1-1.7,0.4l-7.3-7.3c0.3-0.5,0.5-1.2,0.5-1.8c0-2.1-1.7-3.8-3.8-3.8s-3.8,1.7-3.8,3.8c0,0.7,0.2,1.4,0.6,2l-6.3,6.3
		C10.5,26.2,9.9,26,9.3,26c-2.1,0-3.8,1.7-3.8,3.8s1.7,3.8,3.8,3.8s3.8-1.7,3.8-3.8c0-0.7-0.2-1.3-0.5-1.8l6.3-6.3
		c0.5,0.2,1.1,0.4,1.7,0.4c0.7,0,1.3-0.2,1.8-0.5l7.3,7.3c-0.4,0.6-0.6,1.3-0.6,2c0,2.1,1.7,3.8,3.8,3.8s3.8-1.7,3.8-3.8
		c0-0.7-0.2-1.3-0.5-1.8l7.2-7.2c0.4,0.2,0.9,0.3,1.4,0.3c2.1,0,3.8-1.7,3.8-3.8C48.7,16.1,47,14.4,44.9,14.4 M9.3,31.5
		c-0.9,0-1.7-0.8-1.7-1.7c0-0.9,0.8-1.7,1.7-1.7c0.9,0,1.7,0.8,1.7,1.7C10.9,30.7,10.2,31.5,9.3,31.5 M20.6,19.9
		c-0.9,0-1.7-0.8-1.7-1.7c0-0.9,0.8-1.7,1.7-1.7c0.9,0,1.7,0.8,1.7,1.7C22.3,19.2,21.5,19.9,20.6,19.9 M33,32.5
		c-0.9,0-1.7-0.8-1.7-1.7c0-0.9,0.8-1.7,1.7-1.7c0.9,0,1.7,0.8,1.7,1.7C34.6,31.8,33.9,32.5,33,32.5 M44.9,19.9
		c-0.9,0-1.7-0.8-1.7-1.7c0-0.9,0.8-1.7,1.7-1.7c0.9,0,1.7,0.8,1.7,1.7C46.6,19.2,45.9,19.9,44.9,19.9"/>
	<path class="st0" d="M15.7,13.7c-0.2-0.2-0.5-0.3-0.7-0.3c-0.3,0-0.6,0.1-0.8,0.3c-0.2,0.2-0.3,0.5-0.3,0.7c0,0.3,0.1,0.6,0.3,0.7
		c0.2,0.2,0.5,0.3,0.8,0.3c0.3,0,0.6-0.1,0.7-0.3c0.2-0.2,0.3-0.5,0.3-0.7C16,14.1,15.9,13.9,15.7,13.7"/>
	<path class="st0" d="M11,13.4H5.9c-0.6,0-1.1,0.5-1.1,1.1s0.5,1.1,1.1,1.1H11c0.6,0,1.1-0.5,1.1-1.1S11.6,13.4,11,13.4"/>
	<path class="st0" d="M11,18.4H5.9c-0.6,0-1.1,0.5-1.1,1.1s0.5,1.1,1.1,1.1H11c0.6,0,1.1-0.5,1.1-1.1S11.6,18.4,11,18.4"/>
</g>
</svg>
