<?xml version="1.0" encoding="utf-8"?>
<!-- Generator: Adobe Illustrator 22.0.1, SVG Export Plug-In . SVG Version: 6.00 Build 0)  -->
<svg version="1.1" id="Layer_1" xmlns="http://www.w3.org/2000/svg" xmlns:xlink="http://www.w3.org/1999/xlink" x="0px" y="0px"
	 viewBox="0 0 798.8 756.1" style="enable-background:new 0 0 798.8 756.1;" xml:space="preserve">
<style type="text/css">
	.st0{clip-path:url(#SVGID_2_);fill:#4FB648;}
</style>
<g>
	<defs>
		<rect id="SVGID_1_" width="798.8" height="756.1"/>
	</defs>
	<clipPath id="SVGID_2_">
		<use xlink:href="#SVGID_1_"  style="overflow:visible;"/>
	</clipPath>
	<path class="st0" d="M299.3,756.1c-79.9,0-155.1-31.1-211.6-87.7C31.1,611.9,0,536.7,0,456.8c0-79.9,31.1-155.1,87.7-211.6
		c56.5-56.5,131.7-87.7,211.6-87.7c28.6,0,51.8,23.2,51.8,51.8c0,28.6-23.2,51.8-51.8,51.8c-52.3,0-101.4,20.4-138.4,57.3
		c-37,37-57.3,86.1-57.3,138.4s20.4,101.4,57.3,138.4c37,37,86.1,57.3,138.4,57.3c52.3,0,101.4-20.4,138.4-57.3
		c37-37,57.3-86.1,57.3-138.4c0-28.6,23.2-51.8,51.8-51.8c28.6,0,51.8,23.2,51.8,51.8c0,79.9-31.1,155.1-87.7,211.6
		C454.4,724.9,379.2,756.1,299.3,756.1"/>
	<path class="st0" d="M191.3,349.5c0,0,70.7-66.6,112.3-4.2l54.1,112.3c0,0,149.8-287.1,428.6-457.7l12.5,20.8
		c0,0-312.1,249.7-403.6,524.3l-66.6,45.8C328.6,590.9,278.6,370.3,191.3,349.5"/>
</g>
</svg>
