<?xml version="1.0" encoding="utf-8"?>
<!-- Generator: Adobe Illustrator 22.0.1, SVG Export Plug-In . SVG Version: 6.00 Build 0)  -->
<svg version="1.1" id="Layer_1" xmlns="http://www.w3.org/2000/svg" xmlns:xlink="http://www.w3.org/1999/xlink" x="0px" y="0px"
	 viewBox="0 0 671.6 241.3" style="enable-background:new 0 0 671.6 241.3;" xml:space="preserve">
<style type="text/css">
	.st0{clip-path:url(#SVGID_2_);fill:#221F1F;}
	.st1{clip-path:url(#SVGID_2_);fill:#4FB648;}
</style>
<g>
	<defs>
		<rect id="SVGID_1_" width="671.6" height="241.3"/>
	</defs>
	<clipPath id="SVGID_2_">
		<use xlink:href="#SVGID_1_"  style="overflow:visible;"/>
	</clipPath>
	<path class="st0" d="M65.5,140.9l36.8-36.8c8.4-8.4,13.1-19.6,13.1-31.5c0-11.9-4.6-23.1-13.1-31.5c-8.4-8.4-19.6-13.1-31.5-13.1
		c-11.9,0-23.1,4.6-31.5,13.1c-8.4,8.4-13.1,19.6-13.1,31.5c0,6.8,1.6,13.6,4.6,19.7l-17.5,17.5c-0.6,0.6-1.1,1.1-1.6,1.7
		C4,99.9,0,86.4,0,72.5c0-18.9,7.4-36.7,20.7-50C34.1,9.1,51.9,1.7,70.8,1.7c18.9,0,36.7,7.4,50,20.7c13.4,13.4,20.7,31.1,20.7,50
		c0,14.5-4.3,28.4-12.6,40.3c-1.5,2.1-3.1,4.2-4.8,6.2c-1.1,1.2-2.2,2.4-3.3,3.6L84,159.4L65.5,140.9z"/>
	<path class="st0" d="M70.8,238c-18.9,0-36.7-7.4-50-20.7C7.4,203.9,0,186.1,0,167.2c0-14.5,4.3-28.4,12.6-40.3
		c1.5-2.1,3.1-4.2,4.8-6.2c1.1-1.2,2.2-2.4,3.3-3.6l31.5-31.5l18.5,18.5l-31.5,31.5c-8.4,8.4-13.1,19.6-13.1,31.5
		c0,11.9,4.6,23.1,13.1,31.5c8.4,8.4,19.6,13.1,31.5,13.1c11.9,0,23.1-4.6,31.5-13.1c8.4-8.4,13.1-19.6,13.1-31.5
		c0-6.8-1.6-13.6-4.6-19.7l17.5-17.5c0.6-0.6,1.1-1.1,1.6-1.7c7.6,11.5,11.6,24.9,11.6,38.9c0,18.9-7.4,36.7-20.7,50
		C107.4,230.6,89.7,238,70.8,238"/>
	<polygon class="st1" points="49.2,67.5 88.1,67.5 88.1,106.5 	"/>
	<polygon class="st1" points="284.9,1.7 310.1,1.7 310.1,26.9 	"/>
	<path class="st0" d="M281.2,79.3h-69.6c0.8,7.7,3.7,13.9,8.7,18.5c5,4.6,10.7,6.9,17.3,6.9c11.9,0,20.3-5,25.3-14.9l16.1,3.5
		c-3.5,8.9-8.8,15.6-16,20.2c-7.2,4.6-15.7,6.8-25.4,6.8c-12,0-22.3-4.2-30.9-12.6c-8.6-8.4-12.9-19.3-12.9-32.6
		c0-13.4,4.3-24.3,12.9-32.8c8.6-8.5,19.1-12.7,31.6-12.7c11.7,0,21.6,4.1,29.9,12.2c8.3,8.1,12.6,18.6,13.1,31.3V79.3z M221.6,51.1
		c-5.1,3.7-8.3,8.8-9.5,15.4h50.6c-1.4-6.8-4.3-12-8.7-15.6c-4.4-3.6-9.6-5.4-15.8-5.4C232.2,45.6,226.6,47.4,221.6,51.1"/>
	<rect x="292.1" y="32" class="st0" width="18" height="85.9"/>
	<path class="st0" d="M410,110.3c0,12.7-4,22.6-12,29.8c-8,7.2-18.9,10.7-32.5,10.7c-20.6,0-34.5-6.9-41.9-20.6l14.7-10.9
		c3.3,5.3,7.1,9.2,11.2,11.6c4.1,2.4,9.4,3.6,16,3.6c8.2,0,14.8-2.4,19.7-7.2c4.9-4.8,7.4-11.3,7.4-19.7v-5.5
		c-6.8,7.2-16.7,10.7-29.6,10.7c-11.2,0-21-4-29.4-12.1c-8.4-8.1-12.6-18-12.6-29.6c0-11.7,4.2-21.5,12.6-29.4
		c8.4-8,18.2-12,29.5-12c12.9,0,22.8,3.6,29.6,10.7V32H410V110.3z M384.7,90c5.3-4.9,7.9-11.2,7.9-18.8c0-7.7-2.6-14-7.9-18.9
		c-5.3-4.9-11.5-7.3-18.8-7.3c-7.9,0-14.4,2.4-19.7,7.2c-5.3,4.8-7.9,11.1-7.9,19c0,7.7,2.6,14,7.9,18.9c5.3,4.9,11.8,7.3,19.7,7.3
		C373.1,97.3,379.4,94.9,384.7,90"/>
	<path class="st0" d="M499.8,39.8c6.4,6.8,9.5,15.5,9.5,26.2v52h-18.2V69.6c0-7-1.9-12.7-5.6-17c-3.8-4.3-8.7-6.4-14.8-6.4
		c-8,0-14.2,2.7-18.8,8.1c-4.6,5.4-6.8,13.4-6.8,23.9V118h-18V0h18v42.6c7.3-8.7,17.2-13,29.8-13C485.1,29.6,493.4,33,499.8,39.8"/>
	<path class="st0" d="M571.2,113.8c-7.4,4.4-14.5,6.6-21.3,6.6c-9.6,0-17.1-2.7-22.7-8.1c-5.5-5.4-8.3-13.3-8.3-23.6V46.9V32V0h18
		v32h29.4v14.9h-29.4v40.5c0,5.2,1.3,9.2,3.8,11.9c2.5,2.7,6,4.1,10.4,4.1c5,0,9.8-1.6,14.5-4.7L571.2,113.8z"/>
	<polygon class="st1" points="666.8,118 645.2,118 622.7,87 600.1,118 578.7,118 609.5,75.9 578.7,31.9 600.1,31.9 622.7,64.4 
		645.2,31.9 659.6,42.1 636,75.9 	"/>
	<path class="st1" d="M220.8,198.5l-8.7-9.7h-3.5v9.7h-3.9v-24.4h11.5c2.5,0,4.5,0.7,6.1,2c1.5,1.3,2.3,3.1,2.3,5.3
		c0,2.1-0.7,3.8-2.1,5.1c-1.4,1.3-3.3,2.1-5.6,2.2l8.8,9.8H220.8z M216.1,185.2c1.3,0,2.4-0.3,3.2-1c0.8-0.7,1.2-1.6,1.2-2.8
		c0-1.1-0.4-2.1-1.2-2.8c-0.8-0.7-1.9-1.1-3.2-1.1h-7.6v7.6H216.1z"/>
	<path class="st1" d="M244.2,198.5h-3.8v-2.2c-1.5,1.8-3.6,2.7-6.2,2.7c-2.2,0-3.9-0.7-5.3-2.1c-1.3-1.4-2-3.3-2-5.6v-10.9h3.8v10.1
		c0,1.5,0.4,2.7,1.2,3.6c0.8,0.9,1.8,1.4,3.2,1.4c1.7,0,3-0.6,3.9-1.7c0.9-1.1,1.4-2.8,1.4-5v-8.4h3.8V198.5z"/>
	<path class="st1" d="M263.8,182c1.3,1.4,2,3.3,2,5.5v10.9H262v-10.2c0-1.5-0.4-2.7-1.2-3.6c-0.8-0.9-1.8-1.3-3.1-1.3
		c-1.7,0-3,0.6-4,1.7c-1,1.1-1.4,2.8-1.4,5v8.4h-3.8v-18.1h3.8v2.2c1.5-1.8,3.6-2.7,6.3-2.7C260.7,179.9,262.4,180.6,263.8,182"/>
	<polygon class="st1" points="283.9,204.7 279.6,204.7 282.6,198.1 274.8,180.4 279,180.4 284.7,193.4 290.5,180.4 294.7,180.4 	"/>
	<path class="st1" d="M311.1,182.7c1.9,1.8,2.8,4,2.8,6.8s-0.9,5-2.8,6.8c-1.9,1.8-4.2,2.7-6.9,2.7c-2.7,0-5-0.9-6.9-2.7
		c-1.9-1.8-2.8-4-2.8-6.8s0.9-5,2.8-6.8c1.9-1.8,4.2-2.6,6.9-2.6C307,180,309.2,180.9,311.1,182.7 M308.4,193.9
		c1.2-1.2,1.8-2.6,1.8-4.5c0-1.8-0.6-3.3-1.8-4.5c-1.2-1.2-2.6-1.7-4.2-1.7c-1.7,0-3.1,0.6-4.2,1.7c-1.2,1.2-1.8,2.6-1.8,4.5
		c0,1.8,0.6,3.3,1.8,4.5c1.2,1.2,2.6,1.7,4.2,1.7C305.8,195.7,307.2,195.1,308.4,193.9"/>
	<path class="st1" d="M333.5,198.5h-3.8v-2.2c-1.5,1.8-3.6,2.7-6.2,2.7c-2.2,0-3.9-0.7-5.3-2.1c-1.3-1.4-2-3.3-2-5.6v-10.9h3.8v10.1
		c0,1.5,0.4,2.7,1.2,3.6c0.8,0.9,1.8,1.4,3.2,1.4c1.7,0,3-0.6,3.9-1.7c0.9-1.1,1.4-2.8,1.4-5v-8.4h3.8V198.5z"/>
	<path class="st1" d="M349.8,180.4l-0.3,3.6c-0.2,0-0.5,0-1.1,0c-2.2,0-3.9,0.7-5.1,2.2c-1.2,1.4-1.7,3.4-1.7,6v6.4h-3.8v-18.1h3.8
		v3.9c1.7-2.7,3.9-4.1,6.9-4.1C349,180.2,349.5,180.3,349.8,180.4"/>
	<path class="st1" d="M375.9,182.6c1.8,1.8,2.7,4.1,2.7,6.9c0,2.8-0.9,5.1-2.6,6.9c-1.8,1.8-3.9,2.7-6.3,2.7c-2.7,0-4.9-0.9-6.6-2.6
		v2.1h-3.8v-26.3h3.8v10.3c1.7-1.7,3.8-2.6,6.6-2.6C372,179.9,374.1,180.8,375.9,182.6 M373.2,194c1.1-1.1,1.7-2.6,1.7-4.5
		c0-1.9-0.6-3.4-1.7-4.5c-1.1-1.1-2.5-1.7-4.2-1.7c-1.6,0-3,0.6-4.2,1.7c-1.2,1.2-1.8,2.6-1.8,4.5c0,1.8,0.6,3.3,1.8,4.5
		c1.2,1.2,2.6,1.7,4.2,1.7C370.7,195.7,372.1,195.1,373.2,194"/>
	<path class="st1" d="M398.2,198.5h-3.8v-2.2c-1.5,1.8-3.6,2.7-6.2,2.7c-2.2,0-3.9-0.7-5.3-2.1c-1.3-1.4-2-3.3-2-5.6v-10.9h3.8v10.1
		c0,1.5,0.4,2.7,1.2,3.6c0.8,0.9,1.8,1.4,3.2,1.4c1.7,0,3-0.6,3.9-1.7c1-1.1,1.4-2.8,1.4-5v-8.4h3.8V198.5z"/>
	<path class="st1" d="M404.5,192.9c0.1,1,0.6,1.8,1.4,2.3c0.8,0.5,1.9,0.8,3.1,0.8c1.1,0,2-0.2,2.6-0.7c0.6-0.4,1-1,1-1.8
		c0-1.1-0.8-1.8-2.4-2.2l-3.9-0.8c-3.3-0.7-4.9-2.4-4.9-4.9c0-1.7,0.6-3.1,2-4.1c1.3-1.1,3-1.6,5.2-1.6c2,0,3.7,0.5,5.1,1.4
		c1.3,1,2.2,2.2,2.5,3.8l-3.6,0.8c-0.1-0.9-0.6-1.6-1.3-2.2c-0.7-0.5-1.7-0.8-2.8-0.8c-1,0-1.8,0.2-2.4,0.7c-0.5,0.5-0.8,1-0.8,1.7
		c0,1,0.7,1.7,2.2,2l4.3,0.9c1.5,0.3,2.6,0.9,3.5,1.7c0.8,0.8,1.2,1.9,1.2,3.2c0,1.8-0.7,3.3-2.1,4.3c-1.4,1-3.2,1.5-5.5,1.5
		c-2.1,0-4-0.5-5.4-1.4c-1.5-0.9-2.3-2.2-2.6-4L404.5,192.9z"/>
	<path class="st1" d="M423,173.3c0.5,0.5,0.7,1,0.7,1.7c0,0.7-0.2,1.2-0.7,1.7c-0.4,0.4-1,0.7-1.7,0.7c-0.7,0-1.3-0.2-1.8-0.7
		c-0.5-0.4-0.7-1-0.7-1.7c0-0.7,0.2-1.2,0.7-1.7c0.5-0.5,1-0.7,1.8-0.7C422,172.6,422.6,172.9,423,173.3 M419.4,180.4h3.8v18.1h-3.8
		V180.4z"/>
	<path class="st1" d="M443.1,182c1.3,1.4,2,3.3,2,5.5v10.9h-3.8v-10.2c0-1.5-0.4-2.7-1.2-3.6c-0.8-0.9-1.8-1.3-3.1-1.3
		c-1.7,0-3,0.6-4,1.7c-1,1.1-1.4,2.8-1.4,5v8.4h-3.8v-18.1h3.8v2.2c1.5-1.8,3.6-2.7,6.3-2.7C440,179.9,441.8,180.6,443.1,182"/>
	<path class="st1" d="M465.8,190.4h-14.7c0.2,1.6,0.8,2.9,1.8,3.9c1,1,2.3,1.5,3.6,1.5c2.5,0,4.3-1,5.3-3.1l3.4,0.7
		c-0.7,1.9-1.9,3.3-3.4,4.2c-1.5,1-3.3,1.4-5.3,1.4c-2.5,0-4.7-0.9-6.5-2.7c-1.8-1.8-2.7-4.1-2.7-6.9c0-2.8,0.9-5.1,2.7-6.9
		c1.8-1.8,4-2.7,6.7-2.7c2.5,0,4.6,0.9,6.3,2.6c1.7,1.7,2.7,3.9,2.8,6.6V190.4z M453.2,184.4c-1.1,0.8-1.7,1.9-2,3.2h10.7
		c-0.3-1.4-0.9-2.5-1.8-3.3c-0.9-0.8-2-1.1-3.3-1.1C455.5,183.3,454.3,183.7,453.2,184.4"/>
	<path class="st1" d="M470.8,192.9c0.1,1,0.6,1.8,1.4,2.3c0.8,0.5,1.9,0.8,3.1,0.8c1.1,0,2-0.2,2.6-0.7c0.6-0.4,1-1,1-1.8
		c0-1.1-0.8-1.8-2.4-2.2l-3.9-0.8c-3.3-0.7-4.9-2.4-4.9-4.9c0-1.7,0.6-3.1,2-4.1c1.3-1.1,3-1.6,5.2-1.6c2,0,3.7,0.5,5.1,1.4
		c1.3,1,2.2,2.2,2.5,3.8l-3.6,0.8c-0.1-0.9-0.6-1.6-1.3-2.2c-0.7-0.5-1.7-0.8-2.8-0.8c-1,0-1.8,0.2-2.4,0.7c-0.5,0.5-0.8,1-0.8,1.7
		c0,1,0.7,1.7,2.2,2l4.3,0.9c1.5,0.3,2.6,0.9,3.5,1.7c0.8,0.8,1.2,1.9,1.2,3.2c0,1.8-0.7,3.3-2.1,4.3c-1.4,1-3.2,1.5-5.5,1.5
		c-2.1,0-4-0.5-5.4-1.4c-1.5-0.9-2.3-2.2-2.6-4L470.8,192.9z"/>
	<path class="st1" d="M487.3,192.9c0.1,1,0.6,1.8,1.4,2.3c0.8,0.5,1.9,0.8,3.1,0.8c1.1,0,2-0.2,2.6-0.7c0.6-0.4,1-1,1-1.8
		c0-1.1-0.8-1.8-2.4-2.2l-3.9-0.8c-3.3-0.7-4.9-2.4-4.9-4.9c0-1.7,0.6-3.1,2-4.1c1.3-1.1,3-1.6,5.2-1.6c2,0,3.7,0.5,5.1,1.4
		c1.3,1,2.2,2.2,2.5,3.8l-3.6,0.8c-0.1-0.9-0.6-1.6-1.3-2.2c-0.7-0.5-1.7-0.8-2.8-0.8c-1,0-1.8,0.2-2.4,0.7c-0.5,0.5-0.8,1-0.8,1.7
		c0,1,0.7,1.7,2.2,2l4.3,0.9c1.5,0.3,2.6,0.9,3.5,1.7c0.8,0.8,1.2,1.9,1.2,3.2c0,1.8-0.7,3.3-2.1,4.3c-1.4,1-3.2,1.5-5.5,1.5
		c-2.1,0-4-0.5-5.4-1.4c-1.5-0.9-2.3-2.2-2.6-4L487.3,192.9z"/>
	<polygon class="st1" points="528.4,198.6 525,198.6 520.8,186.4 516.7,198.6 513.2,198.6 507.1,180.4 510.9,180.4 515.1,193 
		519.3,180.4 522.3,180.4 526.6,193 530.7,180.4 534.5,180.4 	"/>
	<path class="st1" d="M540.3,173.3c0.5,0.5,0.7,1,0.7,1.7c0,0.7-0.2,1.2-0.7,1.7c-0.5,0.4-1,0.7-1.7,0.7c-0.7,0-1.3-0.2-1.8-0.7
		c-0.5-0.4-0.7-1-0.7-1.7c0-0.7,0.2-1.2,0.7-1.7c0.5-0.5,1-0.7,1.8-0.7C539.3,172.6,539.9,172.9,540.3,173.3 M536.7,180.4h3.8v18.1
		h-3.8V180.4z"/>
	<path class="st1" d="M557.1,197.6c-1.6,0.9-3.1,1.4-4.5,1.4c-2,0-3.6-0.6-4.8-1.7c-1.2-1.1-1.7-2.8-1.7-5v-8.8h-3.9v-3.1h3.9v-5.6
		h3.8v5.6h6.2v3.1h-6.2v8.5c0,1.1,0.3,1.9,0.8,2.5c0.5,0.6,1.3,0.9,2.2,0.9c1,0,2.1-0.3,3.1-1L557.1,197.6z"/>
	<path class="st1" d="M574,182c1.3,1.4,2,3.3,2,5.5v10.9h-3.8v-10.2c0-1.5-0.4-2.7-1.2-3.6c-0.8-0.9-1.8-1.3-3.1-1.3
		c-1.7,0-3,0.6-4,1.7c-1,1.1-1.4,2.8-1.4,5v8.4h-3.8v-26.3h3.8v10.4c1.5-1.8,3.6-2.7,6.3-2.7C570.9,179.9,572.7,180.6,574,182"/>
	<path class="st1" d="M614.7,181.9c1.3,1.3,2,3,2,5.1v11.5h-3.8v-10.8c0-1.3-0.4-2.4-1.1-3.2s-1.7-1.2-2.9-1.2
		c-1.5,0-2.7,0.5-3.6,1.6c-0.9,1-1.3,2.6-1.3,4.6v9h-3.8v-10.8c0-1.3-0.4-2.4-1.1-3.2c-0.8-0.8-1.7-1.2-2.9-1.2
		c-1.5,0-2.7,0.5-3.5,1.6c-0.9,1-1.3,2.6-1.3,4.6v9h-3.8v-18.1h3.8v2c1.4-1.7,3.3-2.6,5.8-2.6c1.3,0,2.5,0.3,3.6,0.9
		c1.1,0.6,1.9,1.4,2.5,2.4c1.6-2.2,3.8-3.3,6.7-3.3C611.7,179.9,613.4,180.6,614.7,181.9"/>
	<path class="st1" d="M635.6,182.7c1.9,1.8,2.8,4,2.8,6.8s-0.9,5-2.8,6.8c-1.9,1.8-4.2,2.7-6.9,2.7c-2.7,0-5-0.9-6.9-2.7
		c-1.9-1.8-2.8-4-2.8-6.8s0.9-5,2.8-6.8c1.9-1.8,4.2-2.6,6.9-2.6C631.5,180,633.8,180.9,635.6,182.7 M632.9,193.9
		c1.2-1.2,1.8-2.6,1.8-4.5c0-1.8-0.6-3.3-1.8-4.5c-1.2-1.2-2.6-1.7-4.2-1.7c-1.7,0-3.1,0.6-4.2,1.7c-1.2,1.2-1.8,2.6-1.8,4.5
		c0,1.8,0.6,3.3,1.8,4.5c1.2,1.2,2.6,1.7,4.2,1.7C630.4,195.7,631.8,195.1,632.9,193.9"/>
	<path class="st1" d="M653.2,180.4l-0.3,3.6c-0.2,0-0.5,0-1.1,0c-2.2,0-3.9,0.7-5.1,2.2c-1.2,1.4-1.7,3.4-1.7,6v6.4h-3.8v-18.1h3.8
		v3.9c1.7-2.7,3.9-4.1,6.9-4.1C652.4,180.2,652.8,180.3,653.2,180.4"/>
	<path class="st1" d="M671.6,190.4h-14.7c0.2,1.6,0.8,2.9,1.8,3.9c1,1,2.3,1.5,3.6,1.5c2.5,0,4.3-1,5.3-3.1l3.4,0.7
		c-0.7,1.9-1.9,3.3-3.4,4.2c-1.5,1-3.3,1.4-5.3,1.4c-2.5,0-4.7-0.9-6.5-2.7c-1.8-1.8-2.7-4.1-2.7-6.9c0-2.8,0.9-5.1,2.7-6.9
		c1.8-1.8,4-2.7,6.7-2.7c2.5,0,4.6,0.9,6.3,2.6c1.7,1.7,2.7,3.9,2.8,6.6V190.4z M659,184.4c-1.1,0.8-1.7,1.9-2,3.2h10.7
		c-0.3-1.4-0.9-2.5-1.8-3.3c-0.9-0.8-2-1.1-3.3-1.1C661.3,183.3,660.1,183.7,659,184.4"/>
	<path class="st1" d="M218,234l3.5,0.9c-0.5,1.9-1.6,3.5-3.2,4.6c-1.6,1.2-3.5,1.8-5.6,1.8c-2.7,0-4.9-0.9-6.8-2.7
		c-1.9-1.8-2.8-4.1-2.8-6.9c0-2.8,0.9-5.1,2.8-6.9c1.9-1.8,4.1-2.7,6.8-2.7c2.1,0,3.9,0.6,5.5,1.7c1.6,1.2,2.7,2.7,3.3,4.6l-3.6,1.1
		c-0.3-1.3-1-2.3-1.9-2.9c-0.9-0.7-2-1-3.3-1c-1.7,0-3.1,0.6-4.2,1.7c-1.1,1.1-1.7,2.6-1.7,4.4c0,1.8,0.5,3.3,1.6,4.4
		c1.1,1.1,2.5,1.7,4.2,1.7C215.3,237.8,217.1,236.5,218,234"/>
	<path class="st1" d="M241.9,240.8h-3.8v-2.1c-1.7,1.7-3.8,2.6-6.6,2.6c-2.5,0-4.6-0.9-6.3-2.7c-1.8-1.8-2.6-4.1-2.6-6.9
		c0-2.8,0.9-5.1,2.7-6.9c1.8-1.8,3.9-2.7,6.3-2.7c2.7,0,4.9,0.9,6.6,2.6v-2.1h3.8V240.8z M236.3,236.2c1.2-1.2,1.8-2.6,1.8-4.5
		c0-1.8-0.6-3.3-1.8-4.5c-1.2-1.2-2.6-1.7-4.2-1.7c-1.7,0-3.1,0.6-4.2,1.7c-1.1,1.1-1.7,2.6-1.7,4.5c0,1.9,0.6,3.4,1.7,4.5
		c1.1,1.1,2.5,1.7,4.2,1.7C233.8,238,235.2,237.4,236.3,236.2"/>
	<path class="st1" d="M248.5,235.1c0.1,1,0.6,1.8,1.4,2.3c0.8,0.5,1.9,0.8,3.1,0.8c1.1,0,2-0.2,2.6-0.7c0.6-0.4,1-1,1-1.8
		c0-1.1-0.8-1.8-2.4-2.2l-3.9-0.8c-3.3-0.7-4.9-2.4-4.9-4.9c0-1.7,0.6-3.1,2-4.1c1.3-1.1,3-1.6,5.2-1.6c2,0,3.7,0.5,5.1,1.4
		c1.3,1,2.2,2.2,2.5,3.8l-3.6,0.8c-0.1-0.9-0.6-1.6-1.3-2.2c-0.7-0.5-1.7-0.8-2.8-0.8c-1,0-1.8,0.2-2.4,0.7c-0.5,0.5-0.8,1-0.8,1.7
		c0,1,0.7,1.7,2.2,2l4.3,0.9c1.5,0.3,2.6,0.9,3.5,1.7c0.8,0.8,1.2,1.9,1.2,3.2c0,1.8-0.7,3.3-2.1,4.3c-1.4,1-3.2,1.5-5.5,1.5
		c-2.1,0-4-0.5-5.4-1.4c-1.5-0.9-2.3-2.2-2.6-4L248.5,235.1z"/>
	<path class="st1" d="M278.5,224.3c1.3,1.4,2,3.3,2,5.5v10.9h-3.8v-10.2c0-1.5-0.4-2.7-1.2-3.6c-0.8-0.9-1.8-1.4-3.1-1.4
		c-1.7,0-3,0.6-4,1.7c-1,1.1-1.4,2.8-1.4,5v8.4h-3.8v-26.3h3.8v10.4c1.5-1.8,3.6-2.7,6.3-2.7C275.4,222.2,277.1,222.9,278.5,224.3"
		/>
	<path class="st1" d="M309.6,240.8h-3.8v-2.1c-1.7,1.7-3.8,2.6-6.6,2.6c-2.5,0-4.6-0.9-6.3-2.7c-1.8-1.8-2.6-4.1-2.6-6.9
		c0-2.8,0.9-5.1,2.7-6.9c1.8-1.8,3.9-2.7,6.3-2.7c2.7,0,4.9,0.9,6.6,2.6v-2.1h3.8V240.8z M304,236.2c1.2-1.2,1.8-2.6,1.8-4.5
		c0-1.8-0.6-3.3-1.8-4.5c-1.2-1.2-2.6-1.7-4.2-1.7c-1.7,0-3.1,0.6-4.2,1.7c-1.1,1.1-1.7,2.6-1.7,4.5c0,1.9,0.6,3.4,1.7,4.5
		c1.1,1.1,2.5,1.7,4.2,1.7C301.4,238,302.8,237.4,304,236.2"/>
	<path class="st1" d="M329.2,224.3c1.3,1.4,2,3.3,2,5.5v10.9h-3.8v-10.2c0-1.5-0.4-2.7-1.2-3.6c-0.8-0.9-1.8-1.4-3.1-1.4
		c-1.7,0-3,0.6-4,1.7c-1,1.1-1.4,2.8-1.4,5v8.4h-3.8v-18.1h3.8v2.2c1.5-1.8,3.6-2.7,6.3-2.7C326.1,222.2,327.9,222.9,329.2,224.3"/>
	<path class="st1" d="M352.9,240.8H349v-2c-1.7,1.7-3.9,2.6-6.6,2.6c-2.4,0-4.5-0.9-6.3-2.7c-1.8-1.8-2.7-4.1-2.7-6.9
		c0-2.8,0.9-5.1,2.7-6.9c1.8-1.8,3.9-2.7,6.3-2.7c2.7,0,4.9,0.9,6.6,2.6v-10.3h3.8V240.8z M347.2,236.2c1.2-1.1,1.8-2.6,1.8-4.5
		c0-1.8-0.6-3.3-1.8-4.5c-1.2-1.2-2.6-1.7-4.2-1.7c-1.7,0-3.1,0.6-4.2,1.7c-1.1,1.1-1.7,2.6-1.7,4.5c0,1.9,0.6,3.4,1.7,4.5
		c1.1,1.1,2.5,1.7,4.2,1.7C344.7,238,346,237.4,347.2,236.2"/>
	<rect x="364.7" y="214.5" class="st1" width="3.8" height="26.3"/>
	<path class="st1" d="M389.6,232.7H375c0.2,1.6,0.8,2.9,1.8,3.9c1,1,2.3,1.5,3.6,1.5c2.5,0,4.3-1,5.3-3.1l3.4,0.7
		c-0.7,1.9-1.9,3.3-3.4,4.2c-1.5,1-3.3,1.4-5.3,1.4c-2.5,0-4.7-0.9-6.5-2.7c-1.8-1.8-2.7-4.1-2.7-6.9c0-2.8,0.9-5.1,2.7-6.9
		c1.8-1.8,4-2.7,6.7-2.7c2.5,0,4.6,0.9,6.3,2.6c1.7,1.7,2.7,3.9,2.8,6.6V232.7z M377.1,226.7c-1.1,0.8-1.7,1.9-2,3.2h10.7
		c-0.3-1.4-0.9-2.5-1.8-3.3c-0.9-0.8-2-1.1-3.3-1.1C379.3,225.5,378.1,225.9,377.1,226.7"/>
	<path class="st1" d="M394.6,235.1c0.1,1,0.6,1.8,1.4,2.3c0.8,0.5,1.9,0.8,3.1,0.8c1.1,0,2-0.2,2.6-0.7c0.6-0.4,1-1,1-1.8
		c0-1.1-0.8-1.8-2.4-2.2l-3.9-0.8c-3.3-0.7-4.9-2.4-4.9-4.9c0-1.7,0.6-3.1,2-4.1c1.3-1.1,3-1.6,5.2-1.6c2,0,3.7,0.5,5.1,1.4
		c1.3,1,2.2,2.2,2.5,3.8l-3.6,0.8c-0.1-0.9-0.6-1.6-1.3-2.2c-0.7-0.5-1.7-0.8-2.8-0.8c-1,0-1.8,0.2-2.4,0.7c-0.5,0.5-0.8,1-0.8,1.7
		c0,1,0.7,1.7,2.2,2l4.3,0.9c1.5,0.3,2.6,0.9,3.5,1.7c0.8,0.8,1.2,1.9,1.2,3.2c0,1.8-0.7,3.3-2.1,4.3c-1.4,1-3.2,1.5-5.5,1.5
		c-2.1,0-4-0.5-5.4-1.4c-1.5-0.9-2.3-2.2-2.6-4L394.6,235.1z"/>
	<path class="st1" d="M411.1,235.1c0.1,1,0.6,1.8,1.4,2.3c0.8,0.5,1.9,0.8,3.1,0.8c1.1,0,2-0.2,2.6-0.7c0.6-0.4,1-1,1-1.8
		c0-1.1-0.8-1.8-2.4-2.2l-3.9-0.8c-3.3-0.7-4.9-2.4-4.9-4.9c0-1.7,0.6-3.1,2-4.1c1.3-1.1,3-1.6,5.2-1.6c2,0,3.7,0.5,5.1,1.4
		c1.3,1,2.2,2.2,2.5,3.8l-3.6,0.8c-0.1-0.9-0.6-1.6-1.3-2.2c-0.7-0.5-1.7-0.8-2.8-0.8c-1,0-1.8,0.2-2.4,0.7c-0.5,0.5-0.8,1-0.8,1.7
		c0,1,0.7,1.7,2.2,2l4.3,0.9c1.5,0.3,2.6,0.9,3.5,1.7c0.8,0.8,1.2,1.9,1.2,3.2c0,1.8-0.7,3.3-2.1,4.3c-1.4,1-3.2,1.5-5.5,1.5
		c-2.1,0-4-0.5-5.4-1.4c-1.5-0.9-2.3-2.2-2.6-4L411.1,235.1z"/>
	<path class="st1" d="M435.6,235.1c0.1,1,0.6,1.8,1.4,2.3c0.8,0.5,1.9,0.8,3.1,0.8c1.1,0,2-0.2,2.6-0.7c0.6-0.4,1-1,1-1.8
		c0-1.1-0.8-1.8-2.4-2.2l-3.9-0.8c-3.3-0.7-4.9-2.4-4.9-4.9c0-1.7,0.6-3.1,2-4.1c1.3-1.1,3-1.6,5.2-1.6c2,0,3.7,0.5,5.1,1.4
		c1.3,1,2.2,2.2,2.5,3.8l-3.6,0.8c-0.1-0.9-0.6-1.6-1.3-2.2c-0.7-0.5-1.7-0.8-2.8-0.8c-1,0-1.8,0.2-2.4,0.7c-0.5,0.5-0.8,1-0.8,1.7
		c0,1,0.7,1.7,2.2,2l4.3,0.9c1.5,0.3,2.6,0.9,3.5,1.7c0.8,0.8,1.2,1.9,1.2,3.2c0,1.8-0.7,3.3-2.1,4.3c-1.4,1-3.2,1.5-5.5,1.5
		c-2.1,0-4-0.5-5.4-1.4c-1.5-0.9-2.3-2.2-2.6-4L435.6,235.1z"/>
	<path class="st1" d="M462.3,239.9c-1.6,0.9-3.1,1.4-4.5,1.4c-2,0-3.6-0.6-4.8-1.7c-1.2-1.1-1.7-2.8-1.7-5v-8.8h-3.9v-3.1h3.9v-5.6
		h3.8v5.6h6.2v3.1h-6.2v8.5c0,1.1,0.3,1.9,0.8,2.5c0.5,0.6,1.3,0.9,2.2,0.9c1,0,2.1-0.3,3.1-1L462.3,239.9z"/>
	<path class="st1" d="M475.9,222.6l-0.3,3.6c-0.2,0-0.5,0-1.1,0c-2.2,0-3.9,0.7-5.1,2.2c-1.2,1.4-1.7,3.4-1.7,6v6.4h-3.8v-18.1h3.8
		v3.9c1.7-2.7,3.9-4.1,6.9-4.1C475.1,222.5,475.6,222.5,475.9,222.6"/>
	<path class="st1" d="M494.3,232.7h-14.7c0.2,1.6,0.8,2.9,1.8,3.9c1,1,2.3,1.5,3.6,1.5c2.5,0,4.3-1,5.3-3.1l3.4,0.7
		c-0.7,1.9-1.9,3.3-3.4,4.2c-1.5,1-3.3,1.4-5.3,1.4c-2.5,0-4.7-0.9-6.5-2.7c-1.8-1.8-2.7-4.1-2.7-6.9c0-2.8,0.9-5.1,2.7-6.9
		c1.8-1.8,4-2.7,6.7-2.7c2.5,0,4.6,0.9,6.3,2.6c1.7,1.7,2.7,3.9,2.8,6.6V232.7z M481.8,226.7c-1.1,0.8-1.7,1.9-2,3.2h10.7
		c-0.3-1.4-0.9-2.5-1.8-3.3c-0.9-0.8-2-1.1-3.3-1.1C484,225.5,482.8,225.9,481.8,226.7"/>
	<path class="st1" d="M499.3,235.1c0.1,1,0.6,1.8,1.4,2.3c0.8,0.5,1.9,0.8,3.1,0.8c1.1,0,2-0.2,2.6-0.7c0.6-0.4,1-1,1-1.8
		c0-1.1-0.8-1.8-2.4-2.2l-3.9-0.8c-3.3-0.7-4.9-2.4-4.9-4.9c0-1.7,0.6-3.1,2-4.1c1.3-1.1,3-1.6,5.2-1.6c2,0,3.7,0.5,5.1,1.4
		c1.3,1,2.2,2.2,2.5,3.8l-3.6,0.8c-0.1-0.9-0.6-1.6-1.3-2.2c-0.7-0.5-1.7-0.8-2.8-0.8c-1,0-1.8,0.2-2.4,0.7c-0.5,0.5-0.8,1-0.8,1.7
		c0,1,0.7,1.7,2.2,2l4.3,0.9c1.5,0.3,2.6,0.9,3.5,1.7c0.8,0.8,1.2,1.9,1.2,3.2c0,1.8-0.7,3.3-2.1,4.3c-1.4,1-3.2,1.5-5.5,1.5
		c-2.1,0-4-0.5-5.4-1.4c-1.5-0.9-2.3-2.2-2.6-4L499.3,235.1z"/>
	<path class="st1" d="M515.8,235.1c0.1,1,0.6,1.8,1.4,2.3c0.8,0.5,1.9,0.8,3.1,0.8c1.1,0,2-0.2,2.6-0.7c0.6-0.4,1-1,1-1.8
		c0-1.1-0.8-1.8-2.4-2.2l-3.9-0.8c-3.3-0.7-4.9-2.4-4.9-4.9c0-1.7,0.6-3.1,2-4.1c1.3-1.1,3-1.6,5.2-1.6c2,0,3.7,0.5,5.1,1.4
		c1.3,1,2.2,2.2,2.5,3.8l-3.6,0.8c-0.1-0.9-0.6-1.6-1.3-2.2c-0.7-0.5-1.7-0.8-2.8-0.8c-1,0-1.8,0.2-2.4,0.7c-0.5,0.5-0.8,1-0.8,1.7
		c0,1,0.7,1.7,2.2,2l4.3,0.9c1.5,0.3,2.6,0.9,3.5,1.7c0.8,0.8,1.2,1.9,1.2,3.2c0,1.8-0.7,3.3-2.1,4.3c-1.4,1-3.2,1.5-5.5,1.5
		c-2.1,0-4-0.5-5.4-1.4c-1.5-0.9-2.3-2.2-2.6-4L515.8,235.1z"/>
	<rect x="201.8" y="148.5" class="st0" width="101.9" height="4.8"/>
	<rect x="416.4" y="148.5" class="st0" width="250.4" height="4.8"/>
	<polygon class="st1" points="631.9,31.9 659.9,31.9 659.9,59.9 	"/>
</g>
</svg>
